<mxfile host="Electron" modified="2024-03-25T03:23:53.750Z" agent="Mozilla/5.0 (Macintosh; Intel Mac OS X 10_15_7) AppleWebKit/537.36 (KHTML, like Gecko) draw.io/24.1.0 Chrome/120.0.6099.109 Electron/28.1.0 Safari/537.36" etag="ftg99mjfxUAVjJZap7Rx" version="24.1.0" type="device">
  <diagram name="Page-1" id="vr1PM07qxIIlI3Z-6Mzz">
    <mxGraphModel dx="1114" dy="846" grid="1" gridSize="10" guides="1" tooltips="1" connect="1" arrows="1" fold="1" page="1" pageScale="1" pageWidth="850" pageHeight="1100" math="0" shadow="0">
      <root>
        <mxCell id="0" />
        <mxCell id="1" parent="0" />
        <mxCell id="1fxW01cwJuNlYjaTtQPK-1" value="" style="rounded=0;whiteSpace=wrap;html=1;dashed=1;strokeWidth=2;" vertex="1" parent="1">
          <mxGeometry x="311" y="360" width="138" height="190" as="geometry" />
        </mxCell>
        <mxCell id="1fxW01cwJuNlYjaTtQPK-2" value="" style="rounded=0;whiteSpace=wrap;html=1;dashed=1;strokeWidth=2;" vertex="1" parent="1">
          <mxGeometry x="460" y="360" width="138" height="190" as="geometry" />
        </mxCell>
        <mxCell id="1fxW01cwJuNlYjaTtQPK-3" value="" style="rounded=0;whiteSpace=wrap;html=1;dashed=1;strokeWidth=2;" vertex="1" parent="1">
          <mxGeometry x="612" y="280" width="178" height="270" as="geometry" />
        </mxCell>
        <mxCell id="1fxW01cwJuNlYjaTtQPK-4" value="M-mode secure monitor" style="rounded=0;whiteSpace=wrap;html=1;fillColor=#f5f5f5;strokeColor=#666666;fontColor=#333333;" vertex="1" parent="1">
          <mxGeometry x="320" y="566" width="470" height="60" as="geometry" />
        </mxCell>
        <mxCell id="1fxW01cwJuNlYjaTtQPK-5" value="U-mode APP" style="rounded=0;whiteSpace=wrap;html=1;" vertex="1" parent="1">
          <mxGeometry x="320" y="400" width="120" height="60" as="geometry" />
        </mxCell>
        <mxCell id="1fxW01cwJuNlYjaTtQPK-6" value="U-mode APP" style="rounded=0;whiteSpace=wrap;html=1;fillColor=#f5f5f5;strokeColor=#666666;fontColor=#333333;" vertex="1" parent="1">
          <mxGeometry x="470" y="400" width="120" height="60" as="geometry" />
        </mxCell>
        <mxCell id="1fxW01cwJuNlYjaTtQPK-7" value="S-mode OS" style="rounded=0;whiteSpace=wrap;html=1;fillColor=#f5f5f5;strokeColor=#666666;fontColor=#333333;" vertex="1" parent="1">
          <mxGeometry x="470" y="480" width="120" height="60" as="geometry" />
        </mxCell>
        <mxCell id="1fxW01cwJuNlYjaTtQPK-8" value="VS-mode OS" style="rounded=0;whiteSpace=wrap;html=1;fillColor=#f5f5f5;strokeColor=#666666;fontColor=#333333;" vertex="1" parent="1">
          <mxGeometry x="624" y="400" width="70" height="60" as="geometry" />
        </mxCell>
        <mxCell id="1fxW01cwJuNlYjaTtQPK-9" value="HS-mode VMM" style="rounded=0;whiteSpace=wrap;html=1;fillColor=#f5f5f5;strokeColor=#666666;fontColor=#333333;" vertex="1" parent="1">
          <mxGeometry x="624" y="480" width="150" height="60" as="geometry" />
        </mxCell>
        <mxCell id="1fxW01cwJuNlYjaTtQPK-10" value="VU-mode APP" style="rounded=0;whiteSpace=wrap;html=1;fillColor=#f5f5f5;strokeColor=#666666;fontColor=#333333;" vertex="1" parent="1">
          <mxGeometry x="624" y="320" width="70" height="60" as="geometry" />
        </mxCell>
        <mxCell id="1fxW01cwJuNlYjaTtQPK-11" value="VS-mode OS" style="rounded=0;whiteSpace=wrap;html=1;fillColor=#f5f5f5;strokeColor=#666666;fontColor=#333333;" vertex="1" parent="1">
          <mxGeometry x="704" y="400" width="70" height="60" as="geometry" />
        </mxCell>
        <mxCell id="1fxW01cwJuNlYjaTtQPK-12" value="VU-mode APP" style="rounded=0;whiteSpace=wrap;html=1;fillColor=#f5f5f5;strokeColor=#666666;fontColor=#333333;" vertex="1" parent="1">
          <mxGeometry x="704" y="320" width="70" height="60" as="geometry" />
        </mxCell>
        <mxCell id="1fxW01cwJuNlYjaTtQPK-14" value="" style="shape=image;verticalLabelPosition=bottom;verticalAlign=top;imageAspect=0;aspect=fixed;image=data:image/png,iVBORw0KGgoAAAANSUhEUgAAAgAAAAIACAMAAADDpiTIAAAAA3NCSVQICAjb4U/gAAAACXBIWXMAAA6PAAAOjwHjOWJ6AAAAGXRFWHRTb2Z0d2FyZQB3d3cuaW5rc2NhcGUub3Jnm+48GgAAAtBQTFRF////AAAAAAAAAAAAAAAAAAAAAAAAAAAAAAAAAAAAAAAAAAAAAAAAAAAAAAAAAAAAAAAAAAAAAAAAAAAAAAAAAAAAAAAAAAAAAAAAAAAAAAAAAAAAAAAAAAAAAAAAAAAAAAAAAAAAAAAAAAAAAAAAAAAAAAAAAAAAAAAAAAAAAAAAAAAAAAAAAAAAAAAAAAAAAAAAAAAAAAAAAAAAAAAAAAAAAAAAAAAAAAAAAAAAAAAAAAAAAAAAAAAAAAAAAAAAAAAAAAAAAAAAAAAAAAAAAAAAAAAAAAAAAAAAAAAAAAAAAAAAAAAAAAAAAAAAAAAAAAAAAAAAAAAAAAAAAAAAAAAAAAAAAAAAAAAAAAAAAAAAAAAAAAAAAAAAAAAAAAAAAAAAAAAAAAAAAAAAAAAAAAAAAAAAAAAAAAAAAAAAAAAAAAAAAAAAAAAAAAAAAAAAAAAAAAAAAAAAAAAAAAAAAAAAAAAAAAAAAAAAAAAAAAAAAAAAAAAAAAAAAAAAAAAAAAAAAAAAAAAAAAAAAAAAAAAAAAAAAAAAAAAAAAAAAAAAAAAAAAAAAAAAAAAAAAAAAAAAAAAAAAAAAAAAAAAAAAAAAAAAAAAAAAAAAAAAAAAAAAAAAAAAAAAAAAAAAAAAAAAAAAAAAAAAAAAAAAAAAAAAAAAAAAAAAAAAAAAAAAAAAAAAAAAAAAAAAAAAAAAAAAAAAAAAAAAAAAAAAAAAAAAAAAAAAAAAAAAAAAAAAAAAAAAAAAAAAAAAAAAAAAAAAAAAAAAAAAAAAAAAAAAAAAAAAAAAAAAAAAAAAAAAAAAAAAAAAAAAAAAAAAAAAAAAAAAAAAAAAAAAAAAAAAAAAAAAAAAAAAAAAAAAAAAAAAAAAAAAAAAAAAAAAAAAAAAAAAAAAAAAAAAAAAAAAAAAAAAAAAAAAAAAAAAAAAAAAAAAAAAAAAAAAAAAAAAAAAAAjcMAnQAAAO90Uk5TAAECAwQFBgcICQoLDA0ODxAREhMUFRYXGBkaGxwdHiAhIiMkJSYnKCkqKywtLi8wMTIzNDU2Nzg5Ojs9Pj9AQUJERUZHSUpMTU5PUFFSU1RVVldZWltcXV9gYWJjZGVmZ2hpamxtbm9wcXJzdHV2d3h5ent8fX5/gIGCg4aHiImKi4yNjo+RkpOUlZaXmJmam5ydnp+goaKjpKWmp6ipqqutrq+wsbKztLW2uLm6u7y9vr/AwcLDxcbHyMnKzM3Oz9DR0tPU1dbX2Nna29zd3+Dh4uPk5ebn6Onq6+zt7u/w8fLz9PX29/j5+vv8/f55IfRLAAARgElEQVR42u3d+3+WdR3H8WsbG4PhhiIgEjQwcZzyFIxDEockwAMigkOy1ETCQrQEsjgYCOUpSRumuXUgZSDGZGToTMRChymMQOYBEIEBN9z3/f0X+iHr0UFx2/fzvb6H6/X+C+735/OEXfd1X4coSlLade1XPn76rIUrH6/Z0vDe8RMf5/h7DVtqHl+5cNb08eX9uraLSHApGDxtcc3Ow6pFObyzZvG0wQVMLYjklE78ftX2U6rVObW96vsTS3OYoL8pGn3bqpeOKK0ceWnVbaOLmKV/GTS3NqWEkqqdO4iJepQzpzz2jhLOO49NOZPJepDcoQu2pJWRpLcsGJrLhF3OORVP7VdGs/+pinOYs6Nf9a7ZkFExJLPhGr4iupcLlr2vYsv7yy5g4i6lY8ULKua8UNGRuTuSix88pCzk0IMXM3v7KbnlFWUtr9xSwgasZmBls7Ka5sqBbMFa+j2VUdaTeaofm7CSvqvTyomkV/dlG7Gn96pTypmcWtWbjcSacx9IKaeSeuBcthJbuq84rpzL8RXd2Uws6bK0WTmZ5qVd2I7xFMw/rJzN4fn8SmA4I95QTueN4ezIYIofzCrHk73/DPZkKpP2Kg+yZwKbMpJzfqM8SRXfB+STc+OHypscuIGFCecLm5RX2cjZYcm0u+u48izH5uaxN6kMfk15mFf6szmZTGtWXubIFHYnkPyVytss405j/S9/LyiPU9eNDWqe+t2nvM7ecnaok1tPKs+TuoUttjkdfqkCyOoObLJt6bNNBZFXS9llW3L5QRVIDl7ONlt/7n9BRgWTzAIeNdPK5D6qgsqjPFigdWd/qlVgqc5nqy1PYY0KLjWF7LWl6fS8CjDPd2KzLUvnF1WQebEzu21Jum1TgWYbvwy0ID0bVLBp6Ml+P/P03y4VcHb1YcOnT/93VNB5h8uETpuLP1CB5wMeLHSaDDqkgs8hHjv86cd/e1QCsocjwU/JGdtUIrKNuwc/Me2eVQnJs1wr+klZpRKTVWz7//M9laB8j33/b67LJglA9jo2/t+5LKUSldRl7Pw/c8FBlbAc5IHz/5Huu1TisounSPw7HV9WCczLvHDg4+T8XiUyv+dS4X9mjkpo5rD7KIqii1JJBZC6iO1HUccdKrHZwWFAFP1cJTg/Z//XqETnmqTvv/eHyQbwYcLfNJFn5QEwTZtW3Tt/9szJXx02sHfvgcO+Onnm7Pn3rtrUZOOzvJDsp8ktjHfaJxvWLK4Y+qmveisZWrF4TUPMDyVZmOT9j4jxtU8n6uaPaNENmvkj5tediO9zpUckd/+dG+Macv2iMa16UEuHMYvq48LZmNw7xuK5B/x41aTitny64klV8Tygtjqp+58Zx3RfvEnjH1jnm2K5T3VmMvff1fxNAHsWab/Vs98i89eqH+rKKUADya4ZJ/Jcltxxa0xfrpbIE4JfMjvVzK8Hy33Wwb82+8Sq7JeSt/+cl4we9j9ZJvtxy540+qXgpeRdGjDD4DhPVZ4v/4HPrzT5suIZSdt/8bvmhvm4oZvw+zxu7jO/W5wwAMuNjbJhlLlPPcrc00uWJ2v/ZaZOuB83+/LWgvmmzg2dLEsUgOcMjfG580x/8vOMffQk7f9KQ39Ip8bx4acaOny5Mjn7L9xlZIJVMf2q0rnKyMfflZxHiS4w8nPvt+Ir8C0jPxcvSMr+ex8zML2dl8RZ4ZKdBiocS8rlYSaeBPG7kng7lPzOQImEPDeih/z/nyct3GMzR/6b7IkeiQCwVHxwdt7NVr5XvMjSJOy/5CPxc3+97DTpJX5e8KOSBACYJz21+i62qnSpl+4yL/z9t5e++n5Dkb0yRRuEyzS1Dx7AN6TP/hTYbFMgfU7oG6HvP/dvsgO73/LbuHLvl+3zt9DfLna17LwcuK1G+OamqwMHIPs0oB+7UOnHopVeDnv/XxEd1pNOXEmX86Roqa8EDUD0edAbC9woVbBRstWzIe//QslJverMZXTFr0r2ujBgAL+S/PncoRPnPSQvcPhVuPs/U/B5YPv7udSs3365ZqkzgwXwTcHf/4a7VW244G+D3wwWwGa5ITn3jEXBp11uDnX/veTuBnzavXZPi5XL9goUwB1iI9p9lnvtztotVu+OQAG8JjWgU8NdrDdc7N7B18Lc/8DQ/4XI/Q83MEgAi6XGs97Re6lz1ks1XBzi/nOkHgm272xXK569T6hiY4iPCxgp9c/jWnc7XivVcWSAAB4Wmk2tyyVrhUo+FN7+8w8InQJ0+jZqqdveD+QHB2CC0L+Ne92uea9QzQnBARC6enJvJ7drdhK6W6QqtP0XCt0QOsX1olNkeh4L7V7xUUIXAbnfVOjyoFGBAfiByFQy/d1v2l/mmZI/CAxAnchUvHiutswz0OsCOwSQuSX8iz50/aJI1RNhHQTIHALU+FG2hoMAQ4cAw/woO4yDADOHAM/70vZ5DgKMHAKM8aXuGA4C/icid4TV+9NX5MERId0jdo/EQK7wp+8VEn3vCQiAxPXg73r0is08iafJBnR1uMghwAqfGq/gIED8EOASnxpfwkGA9CHAG35VfoODAOHvxXf5VfmuJJ33+MwIPBku69mDlHsL3AbXFMr+i5N4Xkzi3GcoL5K6VGAWX/et9NcFSl8aCIBp+qNIe/eK9c4CL5qcxpcAD08DC54ODuVrgMAFwR7eLCdwK2QolwZv1R/FWP9aj9VvvTUQAEe1J5Hq6F/rjvpPxDoaxv57JvR3EYFfwHoGAUDgl4CFPvYWeIp0GL8G3JzQu6UF7oe/OQgA92nPobnAx94FzdrF7wsCwLqkXh+pfzZ4XRAA3tKew8N+Ftd/JMZbIey/QP+c6Bw/m+s/PDRdEACAXvrHQuP9bD5ev3kIzwwt0x9DXz+b99VvXhYAgCH65wHz/Gyep38ucEgAAEZrT+F1X6u/rl19dAAAJmlPYY2v1ddoV58UAAD9y0GW+Fp9CZeERBJngm/0tfqNnAuOoui72lO4ytfqV2lX/24AAPQvCBvra3X9a0JCuChsufYUyn2tXq5dfXkAAB7RnkJ/X6v3167+SAAA9F8W6e35UP2z4CG8RHKt9hRKfK1eol19bQAANmlPIc/X6nna1TcFAODPCb42Vvt66D8HAGBHgm+S1b4tekcAAHbpDqHR3+7a78naFQCARgAksjtDAABDAAAAAAAAAAAAAAAAAAAAAAAAAAAAAAAAAAAAAAAAAAAAAAAAAAAAAAAAAAAAAAAAAAAAAAAAAAAAAAAAAAAAAAB0BwDdGQLdGQLdGQLdGQLdGQLdGQLdGQLdGQLdGQLdGQLdGQLdGQLdGQLdGQLdGQLdGQLdGQLdLSa/z9Dyf0X7kelN5d5GsPvQPvl+7L7n3F/U7U4rIp707rpfzO3p9vbzJjzD7s0qeGaCu2/Q6bBwLxsyn70LO7i5/yE7WE482THExeO+H/Gff3x/CH7k3BFh/62sJc5sdex1qgP2s5N4s3+AS/vvu4+NxJ19fd3Zf69G9hF/Gp15p3L3N9mGjbzZ3Y39525hF3byp1wnAMxhE7Yy24kDwGYWYStHP29//zmb2IO9PGcfwM1swWZusL3/LodZgs0cLLEMYB47sJs5li8A2M0K7Gan3a+CV7EB25loFQBfAayn1ub+BzF/+xloEcBKxm8/Ky0C2M747We7vf2fnWX89pM92xqAK5m+C7nSGoAVDN+FrLAGgAtBnchWW/svyTB8F5Kx9XtAObN3I+WWAHyN0buRr1kCcAOjdyO2LgqYy+jdyFxLAJYyejey1BKARxm9G3nUEoCnGb0beZqLAZKdTZYA1DF6N1IHAAAAAAAAAAAAAAAAAAAAAAAAAAAAAAAAAAAAAAAAAAAAAAAAAAAAAAAAAAAAAAAAAAAAAAAAAAAAAAAAAAAAAAAAAAAAAAAAAAAAAAAAAAAAAAAAAAAAAAAAAAAAAAAAAAAAAAAAAAAAAAAAAMDoAUAA4GGyf699+DsTL7rw41w04faHNu7OACARAJqfuHpg4SfVKRxw1eojAAgbQGZjRafTVSqaviEDgGABvD7vc5/d6ty5fwFAkADeHt/SYuPeBEBwAI4vLGx5s/Z3HwNAWADW9Wldt9K1AAgIQOOk1reb1AiAUADUFLWlXlENAMIAUNmubf3aVQIgBAAar1VcCgDvAWRv16l4exYAfgM4OV2v4/STAPAZQHaibsmJWQB4DOCH+i1/CAB/AdTm6rfMrQWArwD2dZOo2W0fAPwEkP6yTM8vpwHgJYB5UkXnAcBHAOtzpIrmrAeAfwAyZXJNyzIA8A7AE5JVnwCAbwDS50tWPT8NAM8ArJbtuhoAfgE4dZ5s1/NOAcArAI9Jl30MAD4BSJdKly1NA8AjAH+Ub/tHAHgE4E75tncCwCMAg+XbDgaAPwD2mqi7FwDeAHjERN1HAOANgCtM1L0CAL4ASHUyUbdTCgCeANhspu9mAHgCoNJM30oAeAJgkZm+iwDgCYBZZvrOAoAnACab6TsZAJ4AGGGm7wgAeAKg1EzfUgB4AqDQTN9CAPgB4JCpwocA4AWAlKnCKQD48SfgLDN9z+JPgCcABpjpOwAAngAYY6bvGAB4AuB6M32vB4AnAO4w0/cOAHgCYIWZvisA4AmAKjN9qwDgCYB6M33rAeAJgExXE3W7ZgDgCQA1w0TdGQoAvgD4rYm6vwWANwCOtJdv2/4IALwBoC6Xb3u5AoA/AB6Sb/sQADwCsEe+7R4AeARADZcuO1wBwCcAtdJlawHgFQA1TrbrOAUAvwBszZGsmrMVAJ4BUFMlq05VAPANwM58uab5OwHgHQB1q1zTWxUA/APwXrFU0eL3AOAhALUuV6Zn7joFAB8BqGUyPZcpAPgJQM2UqDlTAcBXAKmR+i1HpgDgLQD1QaluydIPFAD8BaD+eoZexzP+qgDgMwBVodexQgHAbwCa14fOAAAAAAAAAAAAAAAAAAAAAAAAAAAAAAAAAAAAAAAAAAAAAAAAAAAAAAAAAAAAAAAAAAAAAAAAAAAAAAAAAAAAAAAAAAAAAAAAAAAAAAAAAAAAAAAAAAAAAAAAAAAAAAAAAAAAAAAAAAAAAAAAAAAAAAAAAAAAAAAAAAAAAAAAAAAAAAAAAAAAAAAAAAAAAAAAAAAAAAAAAAAAAAAAAAAAAAAAAAAAAAAAAAAAAAAAAAAAAAAAAAAAAAAAAAAAAJIHYLZex9kA8BzAEr2OSwDgOYDVeh1XA8BzAI16HRsB4DkAdalOxUsVAHwHsEyn4jIAeA/gaI+2N+xxFADeA1A/a3vDnykA+A8gPbqtBUenARAAAHWgb9v69T2gABACANXQqy31ejUoAIQBQDUNaX27IU0KAKEAUMcWFLWuW9GCYwoA4QBQqum27i1v1v22Jp+6AaBFyWy+u2LMhZ+ZMRV3b8741QwACQ8AAAAAAAAAAAAAAAAAAAAAAAAAAAAAAAAAAAAAAAAAAAAAAAAAAAAAAAAAAAAAAAAAAAAAAAAAAAAAAAAAAAAAAAAAAAAAAAAAAAAAAAAAAAAAnD4bGb0b2WgJQDWjdyPVlgA8wOjdyAOWANzD6N3IPZYAzGL0bmSWJQBTGb0bmWoJwFhG70bGWgIwiNG7kUGWAOR9xOxdyEd5lgBE6xm+C1lva//RnQzfhdxpDcAwhu9ChlkDkN/M9O2nOd8aAH4OciEb7e0/+jbjt59vWwTQmb8B1nO0xCIAX96rFnIetLl/TgbaT5lVAFwWZjt/sLv/aDIrsJsJlgG0284ObObVXMsAoqEZtmAv6Ysj67mPNdjLUvv7jzruZA+28lYHBwBEo7Nswk6yoyIn8lNWYSc/cWP/US53iFhJda4jAKL8tWwj/qzNj5xJYS37iDu1hZFDKdrCRuLNlqLIqRQu57tAnMf/ywsj1zKqkb3ElcZRkYMprmQz8aSyOHIzl1WfZDumc7L6ssjddJv3NisymbfndYvcTs7Im5ZU17/PqqTzfn31kptG5kjv6x+Ng/RtvYrM4gAAAABJRU5ErkJggg==" vertex="1" parent="1">
          <mxGeometry x="550" y="371" width="21" height="21" as="geometry" />
        </mxCell>
        <mxCell id="1fxW01cwJuNlYjaTtQPK-15" value="" style="shape=image;verticalLabelPosition=bottom;verticalAlign=top;imageAspect=0;aspect=fixed;image=data:image/png,iVBORw0KGgoAAAANSUhEUgAAAgAAAAIACAYAAAD0eNT6AAAABHNCSVQICAgIfAhkiAAAAAlwSFlzAAAiegAAInoB9ucTRAAAABl0RVh0U29mdHdhcmUAd3d3Lmlua3NjYXBlLm9yZ5vuPBoAACAASURBVHic7d15tGV1eebx76UGCqqgkCoFLEXmQVBERBEQKYQFIkRRHJCIQxun7o5DNCYdkxCjxlaXA7E72mpUCCBRBAEhyiSDgMgkKDOCiAzFzC0pqLH/+F20kHvq3nuG/f72eb+ftd510UVxn9rnnL2fs8cRJLXN04BnAxsD84D5Yz/nrfa/NwRmAHPG/sy6wNpj/7wBMAIsB0bH/r9HgcfH/vlhYBlw/5/MfavNIuA24Pf9/+tJasJIdABJTzEd2BrYCth8bDYbm82BuVHBxvFEEXhibh37ecPYz1UhqSRNyAIgxdoA2BF4LrADsAuwM+Ube9uNAjcC1wKXA78CrqLsQZAUzAIgNWcG8CJgd+BlY/+8IDRRjFuBS4CLgAuBa4AVoYmkhCwA0uDMpWzs9wD2BF4MrBOaqE6jwMX8sRBcgucWSANnAZD6awvgYOAg4OWUb/2amuXAz4BTgbOAK/BcAqnvLABSb9alfMs/GDiEcna++utu4ExKIfgx5SoFSZIaNwc4HDgNeIzy7dRpZpYAJwFv4o+XOEqSNDBrU77lH005Zh29IXRKGTgVOALLgCSpj0aAfYB/Bx4kfoPndJ5R4DhgP2Ct8V5MSZImMhd4F/BL4jdsztTnt8CngU3/9IWVJGk8uwBfpVyCFr0Rc3qfFZSTB19PubuiJEl/MAv4C+BK4jdYzuDmduCvKXdelCQlth7wfuAO4jdOTnMzCnwJeA6SpFSeDhwJPED8xsiJmxWUKwh2Q5I01DYH/i/l0rHojY9T15wD7IUkaajMp5wR7g17nInmQsrtmyVJLTYH+CjltrHRGxanXXMm5UmNkqQWmUk5uW8R8RsSp72zEvg+sAOSpOq9ifKs+eiNhzM8swz4P8A8JEnV2Rr4EfEbC2d450HKIaWZSJLCrUu5pM8T/Jym5gbgICRJYV5Hubtb9AbByTmnUS4tlSQ1ZDPgDOI3AI6zGPggMA1J0kC9Hu/g59Q3V1IeJCVJ6rONgJOJX9E7TqdZRrnh1CwkSX3xRuA+4lfwjjOZuR7YHUlS1+YBJxC/Qnecqc4yytUp05EqNhIdQBrHrsB/Uk74k9rqUuBw4OboINJ41ooOIK1mhHIb3wtx46/2ezFwBfCu6CCSVLMNgJOI333rOIOY44C5SBXxEIBqsDPwXWDL6CDSAN1MuYHV1dFBJPAQgOK9G7gYN/4aflsBFwGHRQeRpEjTKNdNR++adZyI+SowAymQhwAUYQ7lmOjB0UGkQBcCbwDuig6inCwAatqmwKnA86ODSBX4HfBayiWDUqM8B0BNegHwU9z4S09YAJxHueOl1CifYqWmHEp5hOq86CBSZaZT9gI8AlwSnEWJWADUhLcAxwBrRweRKjUCHEDZI3AGsDI2jjLwHAAN2n8H/hXfa9Jk/Yjy6OvR6CAabp4DoEE6EvgybvylqdgfOAeYHx1Ew80VswZhBPgs8FfRQaQWux7Yl3KlgNR3FgD12zTgK8A7o4NIQ+BWSgn4dXQQDR8LgPppLeBblJP+JPXH7ZQScFN0EA0XzwFQv4xQjve78Zf6a1PgArx/hvrMAqB++Rzw3ugQ0pDaiHJi4M7RQTQ8LADqh38CPhQdQhpy84AfAztEB9Fw8BwA9eoDwBeiQ0iJ3AO8HLghOojazQKgXrwPr/OXIvwGeBnw2+ggai9X3OrWQcDJeDtpKcrNwF74OGF1yQKgbrwYOBdYNzqIlNw1wELg/uggah8LgKZqM8oTyzYKziGpuJRSAh6NDqJ2cfetpmJ94Exgi+ggkv5gAbANcCKwKjiLWsQCoMmaAZwCvDQ6iKSn2IHyuO2zo4OoPSwAmowR4BvAa6ODSOpoT+Be4OfRQdQOFgBNxkfGRlLdDgCuBG6MDqL6eRKgJvJy4CxgenQQSZMyCuxBuUJA6sgCoDXZGLgC2CQ6iKQpuQ14EV4eqDWwAKiTGZRr/feIDqJJexi4G7iPsuK/b2weAZYDK8f+ndXNobzWABsC8yn3nH9iFlCu/lD7nAa8mvK6S09hAVAnXwTeHx1CT7GEsmv3F8AtwK9XmwcH9DvnUe7/sPnYz+dSHk37XGCdAf1O9ceRlId1SU9hAdB43gQcHx1CLKec0HUhcDlwFeUBMMsjQ61mGrA1sBPl8tDdKY+r9XyReqwEDgZOjw6i+lgA9Ke2BS6j7BpWs1ZSlv05wPmUDf9oaKKpmw3sCuxNOSN9V3zseLQHKa/DLdFBJNVrBuUa4lVOY7ME+CHwLobzZMv5wJuBY4AHiF/eWedKYNYEr5WkxD5B/Ioqwyyn7JI9jFx7WmZSniJ5NOVkxOjXIdt8YeKXSFJGe1I2TNErqWGeq4G/Yji/6U/VLMqdJU8HVhD/2mSYlcD+k3lxJOUxB7iJ+BXUMM4K4FRg30m/Gvk8E/gocCvxr9ewzz34JE9Jq/km8SumYZuHgM9RLpvT5EwDXg/8jPjXb5jnB5N9QSQNt0OJXyEN0zxEufZ6gym8BnqqPYGT8PDAoOY9k38pJA2j+ZSnh0WvjIZhHqLccMUNf3/tSHnO/UriX+Nhmt8D20zhdZA0ZL5F/Iqo7bMMOIpyG10Nzgsp51JEv97DNOfhvWCklPbBb1W9zo8ot8NVc/bEe1X0c949tcUvqe1mUZ4XHr3yaevcRrm9qmKsBbwduJP490Lb5yHKVRiSkvhn4lc8bZwVlN39mW7eU7M5wGcoh2Gi3xttnpOmuuAltdO2wGPEr3TaNjcDC7tY3hq85wOXEv8eafO8bspLXVKrjAAXEL+yadOspHzr9z7qdZsOfAR4lPj3TBvnTryCRRpqRxC/omnTPES5MY3aYzvKo5Oj3zttnC92sbwltcA6wG+IX8m0ZS4GNu9qSSvadMrNmHy2xdRmGeW+C5KGzD8Qv4Jpy3yBshFRuy0E7iD+/dSmOaOrJS2pWs8EFhO/cql9HgPe0eUyVp2eDpxF/HurTXNgV0taUpW+RfxKpfZZBLy8y+Wruk0HPo03vprs3ASs3dWSllSVF+IDVSaaa4FNu13Aao3D8CqByc4Hu1zGkipyLvErk5rnEmBe10tXbfNSyt6e6Pdd7fMg8LQul7GkCryS+BVJzfNfwOyul67aakvgeuLff7XPJ7pdwJLi/Yz4lUit85/AzO4XrVpuQ7wp1kQzSjmJUlLLHEj8CqTWORGY0f2i1ZBYl7IXKPr9WPN8puulKymM3/7Hnx/iGc76o5nA94h/X9Y6S4AFXS9dSY3z2//4cwru9tdTTQeOJf79Wesc1f2ildQ0v/0/dc7HB/qos2nA8cS/T2ucx4Bnd79oJTXlVcSvMGqbayknfUlrMoOylyj6/Vrj+KAgqQUuIX5lUdPcCTynpyWqTGbhrYPHm1G8L4BUtT2IX1HUNKPAzj0tUWU0G7iM+PdvbfO3vSxUSYN1IvEriVpmJfCG3hanEtsYuI3493FNczeeRyNVaTN8/vnq413M1KvtgQeIfy/XNG/vaYlKGojPE79yqGV+CKzV2+KUANgHWEr8e7qWuQYY6WmJSuqr9YGHiV851DA3ARv0tjilJ/lL4t/XNc0BvS1OSf30IeJXCjXMMmC3HpelNJ5vEv/+rmVO7XFZSuqTacAtxK8UapiP9rgspU7WAS4n/j1ewywHNu1tcUrqh4OIXyHUMGfhcX8N1pbAI8S/12uYv+9xWUrqg5OIXxlEz33AM3tdkNIkHEH8+72GuQ0LtxRqIzxDeRXw570uSGkKfHBQmf17XZCSuvcR4lcC0XN6z0tRmpq5wK3Ev/ej57u9LkhJ3buO+JVA5DyCJyMpxkLK3SajPwORs5SyF1JSw7zvP7y356Uode9rxH8Goucve16KkqbsG8R/+CPncjwJSbHmAncQ/1mInJ/2vBQlTckcypPuoj/8UbMSeGnPS1Hq3SHEfx6iP4sehmspv0G108GUEpDVscDF0SEkymW4p0WHCDQCvD46hJRJ5mv/R4EFvS9CqW+2BB4j/rMRNZf2vgglTcZ6wBLiP/RR87HeF6HUd58l/rMRNSuBLXpfhJIm8ufEf+Cj5l5KAZJqsx5wJ/Gfkaj5m94XoZrmOQDtc2h0gECfpBwCkGozCnwiOkSgQ6IDaOpGogNoStYDFgGzooMEuBPYinL4Q6rRDOAGYPPoIAFWAptQ1k9qCfcAtMtryLnxBzgSN/6q2zLKXqqM1gL2iw4hDbMfEH+sL2Juo3y7kmo3HbiR+M9MxPxHH5afpHHMAn5P/Ic8Yt7fh+UnNeWtxH9mImYR7lWWBmJ/4j/gEXM/uW96pPaZAfyG+M9OxOzah+WnhtjW2uOA6ABBvgwsjg4hTcEyyvs2o1dGB5CGUcZH/z4KPKMfC09q2FzgYeI/Q03PRf1YeGqGewDaYTNgu+gQAY7Hy4rUTg8DX48OEWAXYJ3oEJocC0A7ZN2t9m/RAaQefJXyrTiTmXgeQGtYANoh4/H/q4DLokNIPbgROD86RIA9ogNociwA9ZsJLIwOESDrSVQaLl+LDhDAAiD1yZ7En9jT9DwEzO7HwpOCrU15iFX0Z6rJeRC/XLaCL1L9XhYdIMAJlJseSW33OPC96BAN2wDYPjqEJmYBqN+e0QECHBsdQOqjE6IDBPAwQAtYAOq2FrBbdIiG3Q5cGB1C6qPzgd9Fh2iYVwK0gAWgbjsCG0aHaNhxlEeLSsNiJXBidIiGPS86gCZmAahbxt3/x0UHkAbgu9EBGrYjbl+q5wtUt2wF4FrgmugQ0gBcDDwQHaJBs4Eto0NozSwAdctWAE6ODiANyArgzOgQDfMwQOUsAPV69thkckp0AGmATo8O0LDnRwfQmlkA6vXC6AANuxO4NDqENEBnkOsEV/cAVM4CUK+dogM07FTyPThFudwL/DI6RIMsAJWzANRr5+gADTs1OoDUgEz3uNgMmBYdQp1ZAOqVqQAsBc6LDiE14KLoAA2aASyIDqHOLAB1ehqwaXSIBv0MWBwdQmpApj0AAJtHB1BnFoA67QSMRIdo0NnRAaSG/Aa4IzpEgywAFbMA1CnbFQAWAGVyRXSABm0WHUCdWQDqlOkKgMWUQwBSFldHB2iQewAqZgGo0w7RARp0MbAsOoTUoEy3u94sOoA6swDUaavoAA3y27+yybQH4DnRAdSZBaA+zwDmRodokAVA2dwEPBYdoiFPjw6gziwA9dkmOkCDVgGXRIeQGrYCuD06REPWBdaJDqHxWQDqs3V0gAbdDNwXHUIKcGt0gAbNjw6g8VkA6pOpAPw8OoAUJFMBmBcdQOOzANQnUwG4KjqAFCRTAXAPQKUsAPXJVAAyPRlNWl2WcwDAPQDVsgDUJ9MlgJmuh5ZWd290gAa5B6BSFoC6bAjMjg7RkAfJdU90aXWZTn7dIDqAxmcBqEumR2f67V+Z3R8doEFrRwfQ+CwAddkkOkCDfhUdQAqUaQ+ABaBSFoC6PDM6QINuiQ4gBXoMWBIdoiEWgEpZAOqS6RCABUDZLY0O0JCZ0QE0PgtAXdwDIOXxeHSAhlgAKmUBqEumApDpRijSeLLsAfAQQKUsAHXJUgDuARZHh5CCZdkDYAGolAWgLhtHB2iI3/6lPCcBup2plC9MXbLcMvPO6ABSBbLsBRuNDqDxWQDqMZ3y7OwM7o4OIFUgSwF4JDqAxmcBqMdcYCQ6REPuiQ4gVSDL8wAy3fWwVSwA9ch0v+y7ogNIFbgxOkBDbogOoPFZAOoxNzpAgzwEIOXZMGb5e7aOBaAemQrAougAUgWuig7QgMeA66NDaHwWgHpkOgTwUHQAqQLXAb+LDjFgF1FKgCpkAahHpj0AXhYkFT+JDjBg50YHUGcWgHpkKgAPRweQKnFSdIABOzk6gDqzANRjVnSAhiwHHo0OIVXiVIb3MrkrgF9Gh1BnFoB6zIgO0JBRYFV0CKkSS4ETokMMyLejA2jNLAD1mB4doCHeFUx6ss9T9owNk/uBf48OoTWzANQjyzOzszwBTZqsW4DvRIfosy+Q51bHrWUBqEeWPQDD9k1H6oePMzzl+C7gX6NDaGIWgHpk2QOwLDqAVKGbgP8dHaJPPoyH+lrBAlAP9wBIuf0L7X8+wJnAcdEhNDkWgHq4B0DK7THgUGBJdJAuLQLeFh1Ck2cBqEeWPQAWAKmza4APRofowgrgcODO6CCaPAtAPbK8FiujA0iV+yrwuegQU/RB4KzoEJqaLBsdSWqTvwaOjg4xSUfiWf+tZAGQpPqsAt4BfCU6yBqsAv5pbNRCWY47S1LbrADeSzm57u+Bkdg4T7IMeA/e7a/V3AMgSXX7R+A1wAPRQcb8FliIG//WswBIUv1OAXYGzg7OcTywE/DT4BzqAwuAJLXD7cC+wGE0f7nd9WO/+83Agw3/bg2IBUCS2uU7wBbAuym74wfplrHf8zzi9z5IQ+tblLNqh31+0p/FJYlyB9E3AqdRTszrx2d0CXAC8Cr8kjjUvApAktprKWVjfQLwDGA/YB/g5ZS9BJO5cmAFcANw7ticBTw8iLCqiwVAkobDIuDYsQFYB9gG2ByYB8wBZgGPAouB+4Gbx2Zp02EVzwIgScNpCfCLsZGewuM7kiQlZAGQJCkhC4AkSQlZACRJSsgCIElSQhYASZISsgBIkpSQBUCSpIQsAJIkJWQBkCQpIQuAJEkJWQAkSUrIAiBJUkIWAEmSErIASJKUkAVAkqSELACSJCVkAZAkKSELgCRJCVkAJElKyAIgSVJCFgBJkhKyAEiSlJAFQJKkhCwAkiQlZAGQJCkhC4AkSQlZACRJSsgCIElSQhYASZISsgBIkpSQBUCSpIQsAJIkJWQBkCQpIQuAJEkJWQAkSUrIAiBJUkIWAEmSErIASJKUkAVAkqSELACSJCVkAZAkKSELgCRJCVkAJElKyAIgSVJCFgBJkhKyAEiSlJAFQJKkhCwAkiQlZAGQJCkhC4AkSQlZACRJSsgCIElSQhYASZISsgBIkpSQBUCSpIQsAJIkJWQBkCQpIQuAJEkJWQAkSUrIAiBJUkIWAEmSErIASJKUkAVAkqSELACSJCVkAZAkKSELgCRJCVkAJElKyAIgSVJC06MDKJ2XALdEh5DUN6PA78fmAeA3wA3A9WM/74+LpjWxAKhps4AtokNIasyvgbOAn479vDM2jp4wEh1AACwAjgdeFh1EkgZoJXAOcDTwfcpeAwWxAMQZAQ4E3j32c1psHElq1CjwXeCzlMMFapgFoHlrAa8C/hHYJTiLJEVbCZxOWSdeEZwlFQtAs/YFvgjsEB1EkiqzCjgO+DBwd3CWFLwMsBnPoRzvOhM3/pI0nhHgcOA64L24fRo49wAM3tuALwHrB+eQpDa5GDiMclmhBsACMDgbAF8HXhcdRJJa6gHgLZRzBNRnnnk+GNsBZ+NlfZLUi3WANwMzgHODswwdC0D/HQD8F+XafklSb0aAvSg3EDuVctWA+sBDAP31auAEYO3oIJI0hE4D3gAsiQ4yDDzLsn/eDpyIG39JGpSDKHsBZkUHGQYeAuiP1wD/gctTkgZtC2BbyheuVcFZWs0NVu8WAidTTlKRJA3eDsB6wI+jg7SZBaA321DO9p8dHUSSknkpsAi4LDpIW3kSYPdmA5cAO0YHkaSkHgd2A66KDtJGngTYva/gxl+SIq1NeX7AutFB2shDAN05FPhEdAhJEk8H5lMuEdQUeAhg6uYDvwQ2ig4iSQLK1QC7Uw7LapI8BDB1X8CNvyTVZAQ4CrdpU+IhgKl5MeVN5p4TSarLAuC3wJXRQdrCDdnUnI8P+JGkWt0FbE65OkATcHfJ5B2AG39JqtkmwBHRIdrCPQCTdy6wd3QISdIa3UK5VfCK6CC1cw/A5OyKG39JaoMtgUOiQ7SBBWBy/kd0AEnSpL0jOkAbeAhgYrOBu4E50UEkSZOyHHgWcE90kJq5B2Bih+LGX5LaZDpl3a01sABMzDeRJLXPYdEBauchgDVbG7gP9wBIUtssB+YBj0QHqZV7ANZsb9z4S1IbTac8H0AdWADWbJ/oAJKkru0dHaBmFoA12yU6gCSpa3tFB6iZ5wB0NkI5/r9hdBBJUldGgfWjQ9TKPQCdPQc3/pLUZusBG0eHqJUFoLPNowNIknq2VXSAWlkAOts0OoAkqWfbRAeolQWgMwuAJLXfM6ID1MoC0NkG0QEkST3zXi4dWAA6Wzc6gCSpZ+tFB6iVBaCzdaIDSJJ65h6ADiwAnc2MDiBJ6plf5jqwAEiSlJAFQJKkhCwAkiQlZAGQJCkhC4AkSQlZACRJSsgCIElSQhYASZISsgBIkpSQBUCSpIQsAJIkJWQBkCQpIQuAJEkJWQAkSUrIAiBJUkIWAEmSErIASJKUkAVAkqSELACSJCVkAZAkKSELgCRJCVkAJElKyAIgSVJCFgBJkhKyAEiSlJAFQJKkhCwAkiQlZAGQJCkhC4AkSQlZACRJSsgCIElSQhYASZISsgBIkpSQBUCSpIQsAJIkJWQBkCQpIQuAJEkJWQAkSUrIAiBJUkIWAEmSErIASJKUkAVAkqSELACSJCVkAZAkKSELgCRJCVkAJElKyAIgSVJCFgBJkhKyAEiSlJAFQJKkhCwAkiQlZAGQJCkhC4AkSQlZACRJSsgCIElSQhYASZISsgBIkpSQBUCSpIQsAJIkJWQBkCQpoenRASSFWwE8AowCy4HZYzMnMpSkwbIASLncDJwLXAbcCFwP3N3h350JbAlsB2wP7AXsSSkHklrOAiANv8uBo4GTgdun8OeWAteNzUnAp4AZwO7AYcAbgQ36mlRSYzwHQBpOS4GvAzsCLwKOYmob/06WAecB7wE2AQ4Hru7Df1dSwywA0nBZDnyZsuv+L4BfDfB3PQYcB7wA+DMsAlKrWACk4XEZ8FLgfwJ3NPh7VwGnArsAH6CcUCipchYAqf2WUja8L6aUgCjLgS8BOwDnB+aQNAkWAKndfg3sQdnwrgrO8oQ7gFcAnwRWBmeR1IEFQGqvy4DdiP3W38ly4GPAoZRzBSRVxgIgtdOPgYXAvdFBJnAScDDlJkOSKmIBkNrnJ8CrgcXBOSbrLEoJcE+AVBELgNQuVwOH0L6N6XmUGwctjw4iqbAASO1xN7A/8FB0kC6dAvyv6BCSCguA1A4rgSPofN/+tvgc8IPoEJIsAFJbfBo4MzpEH6wC/htwZ3QQKTsLgFS/m4F/jg7RR/cDH44OIWVnAZDq937ad9LfRI4Hzo4OIWVmAZDq9iPg9OgQA/Ih6rl7oZSOBUCq2yejAwzQ1ZSHCEkKYAGQ6nUhcEF0iAEb5oIjVc0CINXr36IDNOBS4PLoEFJGFgCpTo8AJ0eHaMgx0QGkjCwAUp2+DzwaHaIhx+MtgqXGWQCkOp0RHaBBi4ArokNI2VgApPqsojw8J5NzogNI2VgApPpcC9wTHaJh50YHkLKxAEj1uTo6QIBrogNI2VgApPrcEB0gwF3Aw9EhpEwsAFJ9bowOECTr31sKYQGQ6rMoOkCQ+6IDSJlYAKT6LI4OEOSR6ABSJhYAqT6j0QGCZP17SyEsAFJ9RqIDBMn695ZCWACk+syJDhBkvegAUiYWAKk+WTeEWf/eUggLgFSfZ0QHCJL17y2FsABI9dkmOkCQraMDSJlYAKT6bBsdIMACYP3oEFImFgCpPjtFBwjw/OgAUjYWAKk+2wEbR4do2MLoAFI2FgCpPiPk2yDuEx1AysYCINXpwOgADdoEeEF0CCkbC4BUp0PIc0Ogw4Fp0SGkbCwAUp1mA6+NDtGQt0QHkDKyAEj1el90gAbsgVcASCEsAFK9XsLwnxz3d9EBpKwsAFLdPhYdYIBeBLwyOoSUlQVAqttC4NXRIQZgBPhsdAgpMwuAVL+jKCcFDpMjgL2jQ0iZWQCk+m0KfDw6RB9tBHwmOoSUnQVAaocPMhyHAtYCjsFH/0rhLABSO4wA36DsDWizvwf2iw4hyQIgtck84Axgw+ggXToM+IfoEJIKC4DULs8FTqd9JwW+AvgmrnOkavhhlNrnJcBZlD0CbXAwcAqwdnQQSX9kAZDaaTfgPOBZ0UEmcARwIrBudBBJT2YBkNprB+AyYN/oIOOYDnwa+BYwIzaKpPFYAKR224hyYuDfUc8jdbcELgI+Srl6QVKFLABS+00HPgFcDuwemGMG8H7gKmDXwBySJsECIA2PnYALKLvdt27w904D3gz8CvgiMKfB3y2pSxYAabisBbwVuA44lsF+E58DvHO139Vk6ZDUIwuANJye+FZ+KXAt8LfA9n34784GDqTczvdu4Gu44ZdaaXp0AEkDtz3wqbG5CziHcvXA9cCNwG+BZeP8ubnAVsC2lBsQ7UW5B8HMwUeWNGgWACmXTYDDx2Z1jwOLgUcpu/af1nAuSQ2zAEiCcpe+tWnP3QUl9chzACRJSsgCIElSQhYASZISsgBIkpSQBUCSpIQsAJIkJWQBkCQpIQuAJEkJWQAkSUrIAiBJUkIWAEmSErIASJKUkAVAkqSELACSJCVkAZAkKSELgCRJCVkAJElKyAIgSVJCFgBJkhKyAEiSlJAFQJKkhCwAkiQlZAGQJCkhC4AkSQlZACRJSsgCIElSQhYASZISsgBIkpSQBUCSpIQsAJIkJWQBkCQpIQuAJEkJWQAkSUrIAiBJUkIWAEmSErIASJKUkAVAkqSELACSJCVkAZAkKSELgCRJCVkAJElKyAIgSVJCFgBJkhKyAEiSlJAFQJKkhCwAkiQlZAGQJCkhC0BnS6MDSJJ69nh0gFpZADp7JDqAJKlno9EBamUB6Mw3jSS1n+vyDiwAnfmmkaT2WxwdoFYWgM7ujQ4gSerZ/dEBamUB6OyG6ACSpJ7dFB2gVhaAzq6LDiBJ6tmN0QFqNRIdoHKLgKdHh5AkdeVRYA6wKjpIjdwDsGbXRAeQJHXtOtz4d2QBWLOfRAeQJHXtgugANbMArNlZ0QEkSV07LzpAzTwHYM2mAfcBG0QHkSRNlFOHkgAAArxJREFUySrKOVxeBtiBewDWbAXuBZCkNroSN/5rZAGY2DHRASRJU3ZCdIDaeQhgYtOB24FNooNIkiZlFbAFcFtwjqq5B2Biy4Fjo0NIkibtfNz4T8gCMDn/j3I+gCSpft+ODtAG06IDtMQDwLbA86KDSJLW6HfAO/FL24TcAzB5R+IbSpJq93lgaXSINnAPwOQ9AGwP7BgdRJI0rgeAI7AATIp7AKbmb4DfR4eQJI3rU8BodIi2cA/A1DxMuSpgv+ggkqQnuQl4Ox6qnTTvAzB104FLgZ2jg0iS/uBA4IzoEG3iIYCpWw68G1gWHUSSBMD3cOM/ZR4C6M6dlMMBr4wOIknJ3QEcBCyJDtI2FoDu/QzYCnh+dBBJSmol8Frg2uggbeQhgN68D7guOoQkJfVx4JzoEG3lSYC9WwBcCGwWnEOSMvkOcDhlL4C6YAHoj62AC4CNo4NIUgLnAfsDj0cHaTMLQP+8ADgb2DA6iCQNsV8AewMPBedoPc8B6J+rgJcAN0cHkaQh9XNgX9z494UFoL9uBl4GXBEdRJKGzLnAK4D7ooMMCwtA/91N2T11cnAOSRoW3wYOwPv895UFYDBGgUOAtwKPBmeRpLZ6HPgA8DZ8wl/feRLg4O0EHAc8NzqIJLXIzcAbgCujgwwr9wAM3i8oVwh8AHdfSdJElgFHUR645sZ/gNwD0KxnAZ+jtFqXvSQ92XnAe/EOq41wD0Cz7gDeRNkjcAzlyYKSlN3FwJ8BC3Hj3xi/hcbaGvgIpRSsF5xFkpq0knIf/09TbqKmhlkA6jAL2A94C/AaYEZsHEkamBso9/E/Gvh1cJbULAD1mQ/sQ9kVthDYNjaOJPVkFDif8i3/HMqJ0aqABaB+mwA7AtsA21EKwXxgLrA+MBtYJyydpOweAhaPzcPArZRv+deP/bwGz3eq0v8HtaMvB2SNjB4AAAAASUVORK5CYII=" vertex="1" parent="1">
          <mxGeometry x="403" y="370" width="22" height="22" as="geometry" />
        </mxCell>
        <mxCell id="1fxW01cwJuNlYjaTtQPK-16" value="" style="shape=image;verticalLabelPosition=bottom;verticalAlign=top;imageAspect=0;aspect=fixed;image=data:image/png,iVBORw0KGgoAAAANSUhEUgAAAgAAAAIACAMAAADDpiTIAAAAA3NCSVQICAjb4U/gAAAACXBIWXMAAA6PAAAOjwHjOWJ6AAAAGXRFWHRTb2Z0d2FyZQB3d3cuaW5rc2NhcGUub3Jnm+48GgAAAtBQTFRF////AAAAAAAAAAAAAAAAAAAAAAAAAAAAAAAAAAAAAAAAAAAAAAAAAAAAAAAAAAAAAAAAAAAAAAAAAAAAAAAAAAAAAAAAAAAAAAAAAAAAAAAAAAAAAAAAAAAAAAAAAAAAAAAAAAAAAAAAAAAAAAAAAAAAAAAAAAAAAAAAAAAAAAAAAAAAAAAAAAAAAAAAAAAAAAAAAAAAAAAAAAAAAAAAAAAAAAAAAAAAAAAAAAAAAAAAAAAAAAAAAAAAAAAAAAAAAAAAAAAAAAAAAAAAAAAAAAAAAAAAAAAAAAAAAAAAAAAAAAAAAAAAAAAAAAAAAAAAAAAAAAAAAAAAAAAAAAAAAAAAAAAAAAAAAAAAAAAAAAAAAAAAAAAAAAAAAAAAAAAAAAAAAAAAAAAAAAAAAAAAAAAAAAAAAAAAAAAAAAAAAAAAAAAAAAAAAAAAAAAAAAAAAAAAAAAAAAAAAAAAAAAAAAAAAAAAAAAAAAAAAAAAAAAAAAAAAAAAAAAAAAAAAAAAAAAAAAAAAAAAAAAAAAAAAAAAAAAAAAAAAAAAAAAAAAAAAAAAAAAAAAAAAAAAAAAAAAAAAAAAAAAAAAAAAAAAAAAAAAAAAAAAAAAAAAAAAAAAAAAAAAAAAAAAAAAAAAAAAAAAAAAAAAAAAAAAAAAAAAAAAAAAAAAAAAAAAAAAAAAAAAAAAAAAAAAAAAAAAAAAAAAAAAAAAAAAAAAAAAAAAAAAAAAAAAAAAAAAAAAAAAAAAAAAAAAAAAAAAAAAAAAAAAAAAAAAAAAAAAAAAAAAAAAAAAAAAAAAAAAAAAAAAAAAAAAAAAAAAAAAAAAAAAAAAAAAAAAAAAAAAAAAAAAAAAAAAAAAAAAAAAAAAAAAAAAAAAAAAAAAAAAAAAAAAAAAAAAAAAAAAAAAAAAAAAAAAAAAAAAAAAAAAAAAAAAAAAAAAAAAAAAAAAAAAAAAAAAAjcMAnQAAAO90Uk5TAAECAwQFBgcICQoLDA0ODxAREhMUFRYXGBkaGxwdHiAhIiMkJSYnKCkqKywtLi8wMTIzNDU2Nzg5Ojs9Pj9AQUJERUZHSUpMTU5PUFFSU1RVVldZWltcXV9gYWJjZGVmZ2hpamxtbm9wcXJzdHV2d3h5ent8fX5/gIGCg4aHiImKi4yNjo+RkpOUlZaXmJmam5ydnp+goaKjpKWmp6ipqqutrq+wsbKztLW2uLm6u7y9vr/AwcLDxcbHyMnKzM3Oz9DR0tPU1dbX2Nna29zd3+Dh4uPk5ebn6Onq6+zt7u/w8fLz9PX29/j5+vv8/f55IfRLAAARgElEQVR42u3d+3+WdR3H8WsbG4PhhiIgEjQwcZzyFIxDEockwAMigkOy1ETCQrQEsjgYCOUpSRumuXUgZSDGZGToTMRChymMQOYBEIEBN9z3/f0X+iHr0UFx2/fzvb6H6/X+C+735/OEXfd1X4coSlLade1XPn76rIUrH6/Z0vDe8RMf5/h7DVtqHl+5cNb08eX9uraLSHApGDxtcc3Ow6pFObyzZvG0wQVMLYjklE78ftX2U6rVObW96vsTS3OYoL8pGn3bqpeOKK0ceWnVbaOLmKV/GTS3NqWEkqqdO4iJepQzpzz2jhLOO49NOZPJepDcoQu2pJWRpLcsGJrLhF3OORVP7VdGs/+pinOYs6Nf9a7ZkFExJLPhGr4iupcLlr2vYsv7yy5g4i6lY8ULKua8UNGRuTuSix88pCzk0IMXM3v7KbnlFWUtr9xSwgasZmBls7Ka5sqBbMFa+j2VUdaTeaofm7CSvqvTyomkV/dlG7Gn96pTypmcWtWbjcSacx9IKaeSeuBcthJbuq84rpzL8RXd2Uws6bK0WTmZ5qVd2I7xFMw/rJzN4fn8SmA4I95QTueN4ezIYIofzCrHk73/DPZkKpP2Kg+yZwKbMpJzfqM8SRXfB+STc+OHypscuIGFCecLm5RX2cjZYcm0u+u48izH5uaxN6kMfk15mFf6szmZTGtWXubIFHYnkPyVytss405j/S9/LyiPU9eNDWqe+t2nvM7ecnaok1tPKs+TuoUttjkdfqkCyOoObLJt6bNNBZFXS9llW3L5QRVIDl7ONlt/7n9BRgWTzAIeNdPK5D6qgsqjPFigdWd/qlVgqc5nqy1PYY0KLjWF7LWl6fS8CjDPd2KzLUvnF1WQebEzu21Jum1TgWYbvwy0ID0bVLBp6Ml+P/P03y4VcHb1YcOnT/93VNB5h8uETpuLP1CB5wMeLHSaDDqkgs8hHjv86cd/e1QCsocjwU/JGdtUIrKNuwc/Me2eVQnJs1wr+klZpRKTVWz7//M9laB8j33/b67LJglA9jo2/t+5LKUSldRl7Pw/c8FBlbAc5IHz/5Huu1TisounSPw7HV9WCczLvHDg4+T8XiUyv+dS4X9mjkpo5rD7KIqii1JJBZC6iO1HUccdKrHZwWFAFP1cJTg/Z//XqETnmqTvv/eHyQbwYcLfNJFn5QEwTZtW3Tt/9szJXx02sHfvgcO+Onnm7Pn3rtrUZOOzvJDsp8ktjHfaJxvWLK4Y+qmveisZWrF4TUPMDyVZmOT9j4jxtU8n6uaPaNENmvkj5tediO9zpUckd/+dG+Macv2iMa16UEuHMYvq48LZmNw7xuK5B/x41aTitny64klV8Tygtjqp+58Zx3RfvEnjH1jnm2K5T3VmMvff1fxNAHsWab/Vs98i89eqH+rKKUADya4ZJ/Jcltxxa0xfrpbIE4JfMjvVzK8Hy33Wwb82+8Sq7JeSt/+cl4we9j9ZJvtxy540+qXgpeRdGjDD4DhPVZ4v/4HPrzT5suIZSdt/8bvmhvm4oZvw+zxu7jO/W5wwAMuNjbJhlLlPPcrc00uWJ2v/ZaZOuB83+/LWgvmmzg2dLEsUgOcMjfG580x/8vOMffQk7f9KQ39Ip8bx4acaOny5Mjn7L9xlZIJVMf2q0rnKyMfflZxHiS4w8nPvt+Ir8C0jPxcvSMr+ex8zML2dl8RZ4ZKdBiocS8rlYSaeBPG7kng7lPzOQImEPDeih/z/nyct3GMzR/6b7IkeiQCwVHxwdt7NVr5XvMjSJOy/5CPxc3+97DTpJX5e8KOSBACYJz21+i62qnSpl+4yL/z9t5e++n5Dkb0yRRuEyzS1Dx7AN6TP/hTYbFMgfU7oG6HvP/dvsgO73/LbuHLvl+3zt9DfLna17LwcuK1G+OamqwMHIPs0oB+7UOnHopVeDnv/XxEd1pNOXEmX86Roqa8EDUD0edAbC9woVbBRstWzIe//QslJverMZXTFr0r2ujBgAL+S/PncoRPnPSQvcPhVuPs/U/B5YPv7udSs3365ZqkzgwXwTcHf/4a7VW244G+D3wwWwGa5ITn3jEXBp11uDnX/veTuBnzavXZPi5XL9goUwB1iI9p9lnvtztotVu+OQAG8JjWgU8NdrDdc7N7B18Lc/8DQ/4XI/Q83MEgAi6XGs97Re6lz1ks1XBzi/nOkHgm272xXK569T6hiY4iPCxgp9c/jWnc7XivVcWSAAB4Wmk2tyyVrhUo+FN7+8w8InQJ0+jZqqdveD+QHB2CC0L+Ne92uea9QzQnBARC6enJvJ7drdhK6W6QqtP0XCt0QOsX1olNkeh4L7V7xUUIXAbnfVOjyoFGBAfiByFQy/d1v2l/mmZI/CAxAnchUvHiutswz0OsCOwSQuSX8iz50/aJI1RNhHQTIHALU+FG2hoMAQ4cAw/woO4yDADOHAM/70vZ5DgKMHAKM8aXuGA4C/icid4TV+9NX5MERId0jdo/EQK7wp+8VEn3vCQiAxPXg73r0is08iafJBnR1uMghwAqfGq/gIED8EOASnxpfwkGA9CHAG35VfoODAOHvxXf5VfmuJJ33+MwIPBku69mDlHsL3AbXFMr+i5N4Xkzi3GcoL5K6VGAWX/et9NcFSl8aCIBp+qNIe/eK9c4CL5qcxpcAD08DC54ODuVrgMAFwR7eLCdwK2QolwZv1R/FWP9aj9VvvTUQAEe1J5Hq6F/rjvpPxDoaxv57JvR3EYFfwHoGAUDgl4CFPvYWeIp0GL8G3JzQu6UF7oe/OQgA92nPobnAx94FzdrF7wsCwLqkXh+pfzZ4XRAA3tKew8N+Ftd/JMZbIey/QP+c6Bw/m+s/PDRdEACAXvrHQuP9bD5ev3kIzwwt0x9DXz+b99VvXhYAgCH65wHz/Gyep38ucEgAAEZrT+F1X6u/rl19dAAAJmlPYY2v1ddoV58UAAD9y0GW+Fp9CZeERBJngm/0tfqNnAuOoui72lO4ytfqV2lX/24AAPQvCBvra3X9a0JCuChsufYUyn2tXq5dfXkAAB7RnkJ/X6v3167+SAAA9F8W6e35UP2z4CG8RHKt9hRKfK1eol19bQAANmlPIc/X6nna1TcFAODPCb42Vvt66D8HAGBHgm+S1b4tekcAAHbpDqHR3+7a78naFQCARgAksjtDAABDAAAAAAAAAAAAAAAAAAAAAAAAAAAAAAAAAAAAAAAAAAAAAAAAAAAAAAAAAAAAAAAAAAAAAAAAAAAAAAAAAAAAAAB0BwDdGQLdGQLdGQLdGQLdGQLdGQLdGQLdGQLdGQLdGQLdGQLdGQLdGQLdGQLdGQLdGQLdGQLdLSa/z9Dyf0X7kelN5d5GsPvQPvl+7L7n3F/U7U4rIp707rpfzO3p9vbzJjzD7s0qeGaCu2/Q6bBwLxsyn70LO7i5/yE7WE482THExeO+H/Gff3x/CH7k3BFh/62sJc5sdex1qgP2s5N4s3+AS/vvu4+NxJ19fd3Zf69G9hF/Gp15p3L3N9mGjbzZ3Y39525hF3byp1wnAMxhE7Yy24kDwGYWYStHP29//zmb2IO9PGcfwM1swWZusL3/LodZgs0cLLEMYB47sJs5li8A2M0K7Gan3a+CV7EB25loFQBfAayn1ub+BzF/+xloEcBKxm8/Ky0C2M747We7vf2fnWX89pM92xqAK5m+C7nSGoAVDN+FrLAGgAtBnchWW/svyTB8F5Kx9XtAObN3I+WWAHyN0buRr1kCcAOjdyO2LgqYy+jdyFxLAJYyejey1BKARxm9G3nUEoCnGb0beZqLAZKdTZYA1DF6N1IHAAAAAAAAAAAAAAAAAAAAAAAAAAAAAAAAAAAAAAAAAAAAAAAAAAAAAAAAAAAAAAAAAAAAAAAAAAAAAAAAAAAAAAAAAAAAAAAAAAAAAAAAAAAAAAAAAAAAAAAAAAAAAAAAAAAAAAAAAAAAAAAAAMDoAUAA4GGyf699+DsTL7rw41w04faHNu7OACARAJqfuHpg4SfVKRxw1eojAAgbQGZjRafTVSqaviEDgGABvD7vc5/d6ty5fwFAkADeHt/SYuPeBEBwAI4vLGx5s/Z3HwNAWADW9Wldt9K1AAgIQOOk1reb1AiAUADUFLWlXlENAMIAUNmubf3aVQIgBAAar1VcCgDvAWRv16l4exYAfgM4OV2v4/STAPAZQHaibsmJWQB4DOCH+i1/CAB/AdTm6rfMrQWArwD2dZOo2W0fAPwEkP6yTM8vpwHgJYB5UkXnAcBHAOtzpIrmrAeAfwAyZXJNyzIA8A7AE5JVnwCAbwDS50tWPT8NAM8ArJbtuhoAfgE4dZ5s1/NOAcArAI9Jl30MAD4BSJdKly1NA8AjAH+Ub/tHAHgE4E75tncCwCMAg+XbDgaAPwD2mqi7FwDeAHjERN1HAOANgCtM1L0CAL4ASHUyUbdTCgCeANhspu9mAHgCoNJM30oAeAJgkZm+iwDgCYBZZvrOAoAnACab6TsZAJ4AGGGm7wgAeAKg1EzfUgB4AqDQTN9CAPgB4JCpwocA4AWAlKnCKQD48SfgLDN9z+JPgCcABpjpOwAAngAYY6bvGAB4AuB6M32vB4AnAO4w0/cOAHgCYIWZvisA4AmAKjN9qwDgCYB6M33rAeAJgExXE3W7ZgDgCQA1w0TdGQoAvgD4rYm6vwWANwCOtJdv2/4IALwBoC6Xb3u5AoA/AB6Sb/sQADwCsEe+7R4AeARADZcuO1wBwCcAtdJlawHgFQA1TrbrOAUAvwBszZGsmrMVAJ4BUFMlq05VAPANwM58uab5OwHgHQB1q1zTWxUA/APwXrFU0eL3AOAhALUuV6Zn7joFAB8BqGUyPZcpAPgJQM2UqDlTAcBXAKmR+i1HpgDgLQD1QaluydIPFAD8BaD+eoZexzP+qgDgMwBVodexQgHAbwCa14fOAAAAAAAAAAAAAAAAAAAAAAAAAAAAAAAAAAAAAAAAAAAAAAAAAAAAAAAAAAAAAAAAAAAAAAAAAAAAAAAAAAAAAAAAAAAAAAAAAAAAAAAAAAAAAAAAAAAAAAAAAAAAAAAAAAAAAAAAAAAAAAAAAAAAAAAAAAAAAAAAAAAAAAAAAAAAAAAAAAAAAAAAAAAAAAAAAAAAAAAAAAAAAAAAAAAAAAAAAAAAAAAAAAAAAAAAAAAAAAAAAAAAAAAAAAAAAJIHYLZex9kA8BzAEr2OSwDgOYDVeh1XA8BzAI16HRsB4DkAdalOxUsVAHwHsEyn4jIAeA/gaI+2N+xxFADeA1A/a3vDnykA+A8gPbqtBUenARAAAHWgb9v69T2gABACANXQqy31ejUoAIQBQDUNaX27IU0KAKEAUMcWFLWuW9GCYwoA4QBQqum27i1v1v22Jp+6AaBFyWy+u2LMhZ+ZMRV3b8741QwACQ8AAAAAAAAAAAAAAAAAAAAAAAAAAAAAAAAAAAAAAAAAAAAAAAAAAAAAAAAAAAAAAAAAAAAAAAAAAAAAAAAAAAAAAAAAAAAAAAAAAAAAAAAAAAAAnD4bGb0b2WgJQDWjdyPVlgA8wOjdyAOWANzD6N3IPZYAzGL0bmSWJQBTGb0bmWoJwFhG70bGWgIwiNG7kUGWAOR9xOxdyEd5lgBE6xm+C1lva//RnQzfhdxpDcAwhu9ChlkDkN/M9O2nOd8aAH4OciEb7e0/+jbjt59vWwTQmb8B1nO0xCIAX96rFnIetLl/TgbaT5lVAFwWZjt/sLv/aDIrsJsJlgG0284ObObVXMsAoqEZtmAv6Ysj67mPNdjLUvv7jzruZA+28lYHBwBEo7Nswk6yoyIn8lNWYSc/cWP/US53iFhJda4jAKL8tWwj/qzNj5xJYS37iDu1hZFDKdrCRuLNlqLIqRQu57tAnMf/ywsj1zKqkb3ElcZRkYMprmQz8aSyOHIzl1WfZDumc7L6ssjddJv3NisymbfndYvcTs7Im5ZU17/PqqTzfn31kptG5kjv6x+Ng/RtvYrM4gAAAABJRU5ErkJggg==" vertex="1" parent="1">
          <mxGeometry x="750" y="290" width="21" height="21" as="geometry" />
        </mxCell>
        <mxCell id="1fxW01cwJuNlYjaTtQPK-17" value="Domain 1" style="text;html=1;strokeColor=none;fillColor=none;align=center;verticalAlign=middle;whiteSpace=wrap;rounded=0;" vertex="1" parent="1">
          <mxGeometry x="330" y="362" width="60" height="30" as="geometry" />
        </mxCell>
        <mxCell id="1fxW01cwJuNlYjaTtQPK-18" value="Domain 2" style="text;html=1;strokeColor=none;fillColor=none;align=center;verticalAlign=middle;whiteSpace=wrap;rounded=0;" vertex="1" parent="1">
          <mxGeometry x="480" y="360" width="60" height="30" as="geometry" />
        </mxCell>
        <mxCell id="1fxW01cwJuNlYjaTtQPK-19" value="Domain 3" style="text;html=1;strokeColor=none;fillColor=none;align=center;verticalAlign=middle;whiteSpace=wrap;rounded=0;" vertex="1" parent="1">
          <mxGeometry x="629" y="281" width="60" height="30" as="geometry" />
        </mxCell>
        <mxCell id="1fxW01cwJuNlYjaTtQPK-20" value="S-mode Runtime" style="rounded=0;whiteSpace=wrap;html=1;" vertex="1" parent="1">
          <mxGeometry x="320" y="480" width="120" height="30" as="geometry" />
        </mxCell>
        <mxCell id="1fxW01cwJuNlYjaTtQPK-23" value="" style="shape=image;verticalLabelPosition=bottom;verticalAlign=top;imageAspect=0;aspect=fixed;image=data:image/png,iVBORw0KGgoAAAANSUhEUgAAAgAAAAIACAMAAADDpiTIAAAAA3NCSVQICAjb4U/gAAAACXBIWXMAAA6PAAAOjwHjOWJ6AAAAGXRFWHRTb2Z0d2FyZQB3d3cuaW5rc2NhcGUub3Jnm+48GgAAAtBQTFRF////AAAAAAAAAAAAAAAAAAAAAAAAAAAAAAAAAAAAAAAAAAAAAAAAAAAAAAAAAAAAAAAAAAAAAAAAAAAAAAAAAAAAAAAAAAAAAAAAAAAAAAAAAAAAAAAAAAAAAAAAAAAAAAAAAAAAAAAAAAAAAAAAAAAAAAAAAAAAAAAAAAAAAAAAAAAAAAAAAAAAAAAAAAAAAAAAAAAAAAAAAAAAAAAAAAAAAAAAAAAAAAAAAAAAAAAAAAAAAAAAAAAAAAAAAAAAAAAAAAAAAAAAAAAAAAAAAAAAAAAAAAAAAAAAAAAAAAAAAAAAAAAAAAAAAAAAAAAAAAAAAAAAAAAAAAAAAAAAAAAAAAAAAAAAAAAAAAAAAAAAAAAAAAAAAAAAAAAAAAAAAAAAAAAAAAAAAAAAAAAAAAAAAAAAAAAAAAAAAAAAAAAAAAAAAAAAAAAAAAAAAAAAAAAAAAAAAAAAAAAAAAAAAAAAAAAAAAAAAAAAAAAAAAAAAAAAAAAAAAAAAAAAAAAAAAAAAAAAAAAAAAAAAAAAAAAAAAAAAAAAAAAAAAAAAAAAAAAAAAAAAAAAAAAAAAAAAAAAAAAAAAAAAAAAAAAAAAAAAAAAAAAAAAAAAAAAAAAAAAAAAAAAAAAAAAAAAAAAAAAAAAAAAAAAAAAAAAAAAAAAAAAAAAAAAAAAAAAAAAAAAAAAAAAAAAAAAAAAAAAAAAAAAAAAAAAAAAAAAAAAAAAAAAAAAAAAAAAAAAAAAAAAAAAAAAAAAAAAAAAAAAAAAAAAAAAAAAAAAAAAAAAAAAAAAAAAAAAAAAAAAAAAAAAAAAAAAAAAAAAAAAAAAAAAAAAAAAAAAAAAAAAAAAAAAAAAAAAAAAAAAAAAAAAAAAAAAAAAAAAAAAAAAAAAAAAAAAAAAAAAAAAAAAAAAAAAAAAAAAAAAAAAAAAAAAAAAAAAAAAAAAAAAAAAAAAAAAAAjcMAnQAAAO90Uk5TAAECAwQFBgcICQoLDA0ODxAREhMUFRYXGBkaGxwdHiAhIiMkJSYnKCkqKywtLi8wMTIzNDU2Nzg5Ojs9Pj9AQUJERUZHSUpMTU5PUFFSU1RVVldZWltcXV9gYWJjZGVmZ2hpamxtbm9wcXJzdHV2d3h5ent8fX5/gIGCg4aHiImKi4yNjo+RkpOUlZaXmJmam5ydnp+goaKjpKWmp6ipqqutrq+wsbKztLW2uLm6u7y9vr/AwcLDxcbHyMnKzM3Oz9DR0tPU1dbX2Nna29zd3+Dh4uPk5ebn6Onq6+zt7u/w8fLz9PX29/j5+vv8/f55IfRLAAARgElEQVR42u3d+3+WdR3H8WsbG4PhhiIgEjQwcZzyFIxDEockwAMigkOy1ETCQrQEsjgYCOUpSRumuXUgZSDGZGToTMRChymMQOYBEIEBN9z3/f0X+iHr0UFx2/fzvb6H6/X+C+735/OEXfd1X4coSlLade1XPn76rIUrH6/Z0vDe8RMf5/h7DVtqHl+5cNb08eX9uraLSHApGDxtcc3Ow6pFObyzZvG0wQVMLYjklE78ftX2U6rVObW96vsTS3OYoL8pGn3bqpeOKK0ceWnVbaOLmKV/GTS3NqWEkqqdO4iJepQzpzz2jhLOO49NOZPJepDcoQu2pJWRpLcsGJrLhF3OORVP7VdGs/+pinOYs6Nf9a7ZkFExJLPhGr4iupcLlr2vYsv7yy5g4i6lY8ULKua8UNGRuTuSix88pCzk0IMXM3v7KbnlFWUtr9xSwgasZmBls7Ka5sqBbMFa+j2VUdaTeaofm7CSvqvTyomkV/dlG7Gn96pTypmcWtWbjcSacx9IKaeSeuBcthJbuq84rpzL8RXd2Uws6bK0WTmZ5qVd2I7xFMw/rJzN4fn8SmA4I95QTueN4ezIYIofzCrHk73/DPZkKpP2Kg+yZwKbMpJzfqM8SRXfB+STc+OHypscuIGFCecLm5RX2cjZYcm0u+u48izH5uaxN6kMfk15mFf6szmZTGtWXubIFHYnkPyVytss405j/S9/LyiPU9eNDWqe+t2nvM7ecnaok1tPKs+TuoUttjkdfqkCyOoObLJt6bNNBZFXS9llW3L5QRVIDl7ONlt/7n9BRgWTzAIeNdPK5D6qgsqjPFigdWd/qlVgqc5nqy1PYY0KLjWF7LWl6fS8CjDPd2KzLUvnF1WQebEzu21Jum1TgWYbvwy0ID0bVLBp6Ml+P/P03y4VcHb1YcOnT/93VNB5h8uETpuLP1CB5wMeLHSaDDqkgs8hHjv86cd/e1QCsocjwU/JGdtUIrKNuwc/Me2eVQnJs1wr+klZpRKTVWz7//M9laB8j33/b67LJglA9jo2/t+5LKUSldRl7Pw/c8FBlbAc5IHz/5Huu1TisounSPw7HV9WCczLvHDg4+T8XiUyv+dS4X9mjkpo5rD7KIqii1JJBZC6iO1HUccdKrHZwWFAFP1cJTg/Z//XqETnmqTvv/eHyQbwYcLfNJFn5QEwTZtW3Tt/9szJXx02sHfvgcO+Onnm7Pn3rtrUZOOzvJDsp8ktjHfaJxvWLK4Y+qmveisZWrF4TUPMDyVZmOT9j4jxtU8n6uaPaNENmvkj5tediO9zpUckd/+dG+Macv2iMa16UEuHMYvq48LZmNw7xuK5B/x41aTitny64klV8Tygtjqp+58Zx3RfvEnjH1jnm2K5T3VmMvff1fxNAHsWab/Vs98i89eqH+rKKUADya4ZJ/Jcltxxa0xfrpbIE4JfMjvVzK8Hy33Wwb82+8Sq7JeSt/+cl4we9j9ZJvtxy540+qXgpeRdGjDD4DhPVZ4v/4HPrzT5suIZSdt/8bvmhvm4oZvw+zxu7jO/W5wwAMuNjbJhlLlPPcrc00uWJ2v/ZaZOuB83+/LWgvmmzg2dLEsUgOcMjfG580x/8vOMffQk7f9KQ39Ip8bx4acaOny5Mjn7L9xlZIJVMf2q0rnKyMfflZxHiS4w8nPvt+Ir8C0jPxcvSMr+ex8zML2dl8RZ4ZKdBiocS8rlYSaeBPG7kng7lPzOQImEPDeih/z/nyct3GMzR/6b7IkeiQCwVHxwdt7NVr5XvMjSJOy/5CPxc3+97DTpJX5e8KOSBACYJz21+i62qnSpl+4yL/z9t5e++n5Dkb0yRRuEyzS1Dx7AN6TP/hTYbFMgfU7oG6HvP/dvsgO73/LbuHLvl+3zt9DfLna17LwcuK1G+OamqwMHIPs0oB+7UOnHopVeDnv/XxEd1pNOXEmX86Roqa8EDUD0edAbC9woVbBRstWzIe//QslJverMZXTFr0r2ujBgAL+S/PncoRPnPSQvcPhVuPs/U/B5YPv7udSs3365ZqkzgwXwTcHf/4a7VW244G+D3wwWwGa5ITn3jEXBp11uDnX/veTuBnzavXZPi5XL9goUwB1iI9p9lnvtztotVu+OQAG8JjWgU8NdrDdc7N7B18Lc/8DQ/4XI/Q83MEgAi6XGs97Re6lz1ks1XBzi/nOkHgm272xXK569T6hiY4iPCxgp9c/jWnc7XivVcWSAAB4Wmk2tyyVrhUo+FN7+8w8InQJ0+jZqqdveD+QHB2CC0L+Ne92uea9QzQnBARC6enJvJ7drdhK6W6QqtP0XCt0QOsX1olNkeh4L7V7xUUIXAbnfVOjyoFGBAfiByFQy/d1v2l/mmZI/CAxAnchUvHiutswz0OsCOwSQuSX8iz50/aJI1RNhHQTIHALU+FG2hoMAQ4cAw/woO4yDADOHAM/70vZ5DgKMHAKM8aXuGA4C/icid4TV+9NX5MERId0jdo/EQK7wp+8VEn3vCQiAxPXg73r0is08iafJBnR1uMghwAqfGq/gIED8EOASnxpfwkGA9CHAG35VfoODAOHvxXf5VfmuJJ33+MwIPBku69mDlHsL3AbXFMr+i5N4Xkzi3GcoL5K6VGAWX/et9NcFSl8aCIBp+qNIe/eK9c4CL5qcxpcAD08DC54ODuVrgMAFwR7eLCdwK2QolwZv1R/FWP9aj9VvvTUQAEe1J5Hq6F/rjvpPxDoaxv57JvR3EYFfwHoGAUDgl4CFPvYWeIp0GL8G3JzQu6UF7oe/OQgA92nPobnAx94FzdrF7wsCwLqkXh+pfzZ4XRAA3tKew8N+Ftd/JMZbIey/QP+c6Bw/m+s/PDRdEACAXvrHQuP9bD5ev3kIzwwt0x9DXz+b99VvXhYAgCH65wHz/Gyep38ucEgAAEZrT+F1X6u/rl19dAAAJmlPYY2v1ddoV58UAAD9y0GW+Fp9CZeERBJngm/0tfqNnAuOoui72lO4ytfqV2lX/24AAPQvCBvra3X9a0JCuChsufYUyn2tXq5dfXkAAB7RnkJ/X6v3167+SAAA9F8W6e35UP2z4CG8RHKt9hRKfK1eol19bQAANmlPIc/X6nna1TcFAODPCb42Vvt66D8HAGBHgm+S1b4tekcAAHbpDqHR3+7a78naFQCARgAksjtDAABDAAAAAAAAAAAAAAAAAAAAAAAAAAAAAAAAAAAAAAAAAAAAAAAAAAAAAAAAAAAAAAAAAAAAAAAAAAAAAAAAAAAAAAB0BwDdGQLdGQLdGQLdGQLdGQLdGQLdGQLdGQLdGQLdGQLdGQLdGQLdGQLdGQLdGQLdGQLdGQLdLSa/z9Dyf0X7kelN5d5GsPvQPvl+7L7n3F/U7U4rIp707rpfzO3p9vbzJjzD7s0qeGaCu2/Q6bBwLxsyn70LO7i5/yE7WE482THExeO+H/Gff3x/CH7k3BFh/62sJc5sdex1qgP2s5N4s3+AS/vvu4+NxJ19fd3Zf69G9hF/Gp15p3L3N9mGjbzZ3Y39525hF3byp1wnAMxhE7Yy24kDwGYWYStHP29//zmb2IO9PGcfwM1swWZusL3/LodZgs0cLLEMYB47sJs5li8A2M0K7Gan3a+CV7EB25loFQBfAayn1ub+BzF/+xloEcBKxm8/Ky0C2M747We7vf2fnWX89pM92xqAK5m+C7nSGoAVDN+FrLAGgAtBnchWW/svyTB8F5Kx9XtAObN3I+WWAHyN0buRr1kCcAOjdyO2LgqYy+jdyFxLAJYyejey1BKARxm9G3nUEoCnGb0beZqLAZKdTZYA1DF6N1IHAAAAAAAAAAAAAAAAAAAAAAAAAAAAAAAAAAAAAAAAAAAAAAAAAAAAAAAAAAAAAAAAAAAAAAAAAAAAAAAAAAAAAAAAAAAAAAAAAAAAAAAAAAAAAAAAAAAAAAAAAAAAAAAAAAAAAAAAAAAAAAAAAMDoAUAA4GGyf699+DsTL7rw41w04faHNu7OACARAJqfuHpg4SfVKRxw1eojAAgbQGZjRafTVSqaviEDgGABvD7vc5/d6ty5fwFAkADeHt/SYuPeBEBwAI4vLGx5s/Z3HwNAWADW9Wldt9K1AAgIQOOk1reb1AiAUADUFLWlXlENAMIAUNmubf3aVQIgBAAar1VcCgDvAWRv16l4exYAfgM4OV2v4/STAPAZQHaibsmJWQB4DOCH+i1/CAB/AdTm6rfMrQWArwD2dZOo2W0fAPwEkP6yTM8vpwHgJYB5UkXnAcBHAOtzpIrmrAeAfwAyZXJNyzIA8A7AE5JVnwCAbwDS50tWPT8NAM8ArJbtuhoAfgE4dZ5s1/NOAcArAI9Jl30MAD4BSJdKly1NA8AjAH+Ub/tHAHgE4E75tncCwCMAg+XbDgaAPwD2mqi7FwDeAHjERN1HAOANgCtM1L0CAL4ASHUyUbdTCgCeANhspu9mAHgCoNJM30oAeAJgkZm+iwDgCYBZZvrOAoAnACab6TsZAJ4AGGGm7wgAeAKg1EzfUgB4AqDQTN9CAPgB4JCpwocA4AWAlKnCKQD48SfgLDN9z+JPgCcABpjpOwAAngAYY6bvGAB4AuB6M32vB4AnAO4w0/cOAHgCYIWZvisA4AmAKjN9qwDgCYB6M33rAeAJgExXE3W7ZgDgCQA1w0TdGQoAvgD4rYm6vwWANwCOtJdv2/4IALwBoC6Xb3u5AoA/AB6Sb/sQADwCsEe+7R4AeARADZcuO1wBwCcAtdJlawHgFQA1TrbrOAUAvwBszZGsmrMVAJ4BUFMlq05VAPANwM58uab5OwHgHQB1q1zTWxUA/APwXrFU0eL3AOAhALUuV6Zn7joFAB8BqGUyPZcpAPgJQM2UqDlTAcBXAKmR+i1HpgDgLQD1QaluydIPFAD8BaD+eoZexzP+qgDgMwBVodexQgHAbwCa14fOAAAAAAAAAAAAAAAAAAAAAAAAAAAAAAAAAAAAAAAAAAAAAAAAAAAAAAAAAAAAAAAAAAAAAAAAAAAAAAAAAAAAAAAAAAAAAAAAAAAAAAAAAAAAAAAAAAAAAAAAAAAAAAAAAAAAAAAAAAAAAAAAAAAAAAAAAAAAAAAAAAAAAAAAAAAAAAAAAAAAAAAAAAAAAAAAAAAAAAAAAAAAAAAAAAAAAAAAAAAAAAAAAAAAAAAAAAAAAAAAAAAAAAAAAAAAAJIHYLZex9kA8BzAEr2OSwDgOYDVeh1XA8BzAI16HRsB4DkAdalOxUsVAHwHsEyn4jIAeA/gaI+2N+xxFADeA1A/a3vDnykA+A8gPbqtBUenARAAAHWgb9v69T2gABACANXQqy31ejUoAIQBQDUNaX27IU0KAKEAUMcWFLWuW9GCYwoA4QBQqum27i1v1v22Jp+6AaBFyWy+u2LMhZ+ZMRV3b8741QwACQ8AAAAAAAAAAAAAAAAAAAAAAAAAAAAAAAAAAAAAAAAAAAAAAAAAAAAAAAAAAAAAAAAAAAAAAAAAAAAAAAAAAAAAAAAAAAAAAAAAAAAAAAAAAAAAnD4bGb0b2WgJQDWjdyPVlgA8wOjdyAOWANzD6N3IPZYAzGL0bmSWJQBTGb0bmWoJwFhG70bGWgIwiNG7kUGWAOR9xOxdyEd5lgBE6xm+C1lva//RnQzfhdxpDcAwhu9ChlkDkN/M9O2nOd8aAH4OciEb7e0/+jbjt59vWwTQmb8B1nO0xCIAX96rFnIetLl/TgbaT5lVAFwWZjt/sLv/aDIrsJsJlgG0284ObObVXMsAoqEZtmAv6Ysj67mPNdjLUvv7jzruZA+28lYHBwBEo7Nswk6yoyIn8lNWYSc/cWP/US53iFhJda4jAKL8tWwj/qzNj5xJYS37iDu1hZFDKdrCRuLNlqLIqRQu57tAnMf/ywsj1zKqkb3ElcZRkYMprmQz8aSyOHIzl1WfZDumc7L6ssjddJv3NisymbfndYvcTs7Im5ZU17/PqqTzfn31kptG5kjv6x+Ng/RtvYrM4gAAAABJRU5ErkJggg==" vertex="1" parent="1">
          <mxGeometry x="311" y="259" width="21" height="21" as="geometry" />
        </mxCell>
        <mxCell id="1fxW01cwJuNlYjaTtQPK-24" value="" style="shape=image;verticalLabelPosition=bottom;verticalAlign=top;imageAspect=0;aspect=fixed;image=data:image/png,iVBORw0KGgoAAAANSUhEUgAAAgAAAAIACAYAAAD0eNT6AAAABHNCSVQICAgIfAhkiAAAAAlwSFlzAAAiegAAInoB9ucTRAAAABl0RVh0U29mdHdhcmUAd3d3Lmlua3NjYXBlLm9yZ5vuPBoAACAASURBVHic7d15tGV1eebx76UGCqqgkCoFLEXmQVBERBEQKYQFIkRRHJCIQxun7o5DNCYdkxCjxlaXA7E72mpUCCBRBAEhyiSDgMgkKDOCiAzFzC0pqLH/+F20kHvq3nuG/f72eb+ftd510UVxn9rnnL2fs8cRJLXN04BnAxsD84D5Yz/nrfa/NwRmAHPG/sy6wNpj/7wBMAIsB0bH/r9HgcfH/vlhYBlw/5/MfavNIuA24Pf9/+tJasJIdABJTzEd2BrYCth8bDYbm82BuVHBxvFEEXhibh37ecPYz1UhqSRNyAIgxdoA2BF4LrADsAuwM+Ube9uNAjcC1wKXA78CrqLsQZAUzAIgNWcG8CJgd+BlY/+8IDRRjFuBS4CLgAuBa4AVoYmkhCwA0uDMpWzs9wD2BF4MrBOaqE6jwMX8sRBcgucWSANnAZD6awvgYOAg4OWUb/2amuXAz4BTgbOAK/BcAqnvLABSb9alfMs/GDiEcna++utu4ExKIfgx5SoFSZIaNwc4HDgNeIzy7dRpZpYAJwFv4o+XOEqSNDBrU77lH005Zh29IXRKGTgVOALLgCSpj0aAfYB/Bx4kfoPndJ5R4DhgP2Ct8V5MSZImMhd4F/BL4jdsztTnt8CngU3/9IWVJGk8uwBfpVyCFr0Rc3qfFZSTB19PubuiJEl/MAv4C+BK4jdYzuDmduCvKXdelCQlth7wfuAO4jdOTnMzCnwJeA6SpFSeDhwJPED8xsiJmxWUKwh2Q5I01DYH/i/l0rHojY9T15wD7IUkaajMp5wR7g17nInmQsrtmyVJLTYH+CjltrHRGxanXXMm5UmNkqQWmUk5uW8R8RsSp72zEvg+sAOSpOq9ifKs+eiNhzM8swz4P8A8JEnV2Rr4EfEbC2d450HKIaWZSJLCrUu5pM8T/Jym5gbgICRJYV5Hubtb9AbByTmnUS4tlSQ1ZDPgDOI3AI6zGPggMA1J0kC9Hu/g59Q3V1IeJCVJ6rONgJOJX9E7TqdZRrnh1CwkSX3xRuA+4lfwjjOZuR7YHUlS1+YBJxC/Qnecqc4yytUp05EqNhIdQBrHrsB/Uk74k9rqUuBw4OboINJ41ooOIK1mhHIb3wtx46/2ezFwBfCu6CCSVLMNgJOI333rOIOY44C5SBXxEIBqsDPwXWDL6CDSAN1MuYHV1dFBJPAQgOK9G7gYN/4aflsBFwGHRQeRpEjTKNdNR++adZyI+SowAymQhwAUYQ7lmOjB0UGkQBcCbwDuig6inCwAatqmwKnA86ODSBX4HfBayiWDUqM8B0BNegHwU9z4S09YAJxHueOl1CifYqWmHEp5hOq86CBSZaZT9gI8AlwSnEWJWADUhLcAxwBrRweRKjUCHEDZI3AGsDI2jjLwHAAN2n8H/hXfa9Jk/Yjy6OvR6CAabp4DoEE6EvgybvylqdgfOAeYHx1Ew80VswZhBPgs8FfRQaQWux7Yl3KlgNR3FgD12zTgK8A7o4NIQ+BWSgn4dXQQDR8LgPppLeBblJP+JPXH7ZQScFN0EA0XzwFQv4xQjve78Zf6a1PgArx/hvrMAqB++Rzw3ugQ0pDaiHJi4M7RQTQ8LADqh38CPhQdQhpy84AfAztEB9Fw8BwA9eoDwBeiQ0iJ3AO8HLghOojazQKgXrwPr/OXIvwGeBnw2+ggai9X3OrWQcDJeDtpKcrNwF74OGF1yQKgbrwYOBdYNzqIlNw1wELg/uggah8LgKZqM8oTyzYKziGpuJRSAh6NDqJ2cfetpmJ94Exgi+ggkv5gAbANcCKwKjiLWsQCoMmaAZwCvDQ6iKSn2IHyuO2zo4OoPSwAmowR4BvAa6ODSOpoT+Be4OfRQdQOFgBNxkfGRlLdDgCuBG6MDqL6eRKgJvJy4CxgenQQSZMyCuxBuUJA6sgCoDXZGLgC2CQ6iKQpuQ14EV4eqDWwAKiTGZRr/feIDqJJexi4G7iPsuK/b2weAZYDK8f+ndXNobzWABsC8yn3nH9iFlCu/lD7nAa8mvK6S09hAVAnXwTeHx1CT7GEsmv3F8AtwK9XmwcH9DvnUe7/sPnYz+dSHk37XGCdAf1O9ceRlId1SU9hAdB43gQcHx1CLKec0HUhcDlwFeUBMMsjQ61mGrA1sBPl8tDdKY+r9XyReqwEDgZOjw6i+lgA9Ke2BS6j7BpWs1ZSlv05wPmUDf9oaKKpmw3sCuxNOSN9V3zseLQHKa/DLdFBJNVrBuUa4lVOY7ME+CHwLobzZMv5wJuBY4AHiF/eWedKYNYEr5WkxD5B/Ioqwyyn7JI9jFx7WmZSniJ5NOVkxOjXIdt8YeKXSFJGe1I2TNErqWGeq4G/Yji/6U/VLMqdJU8HVhD/2mSYlcD+k3lxJOUxB7iJ+BXUMM4K4FRg30m/Gvk8E/gocCvxr9ewzz34JE9Jq/km8SumYZuHgM9RLpvT5EwDXg/8jPjXb5jnB5N9QSQNt0OJXyEN0zxEufZ6gym8BnqqPYGT8PDAoOY9k38pJA2j+ZSnh0WvjIZhHqLccMUNf3/tSHnO/UriX+Nhmt8D20zhdZA0ZL5F/Iqo7bMMOIpyG10Nzgsp51JEv97DNOfhvWCklPbBb1W9zo8ot8NVc/bEe1X0c949tcUvqe1mUZ4XHr3yaevcRrm9qmKsBbwduJP490Lb5yHKVRiSkvhn4lc8bZwVlN39mW7eU7M5wGcoh2Gi3xttnpOmuuAltdO2wGPEr3TaNjcDC7tY3hq85wOXEv8eafO8bspLXVKrjAAXEL+yadOspHzr9z7qdZsOfAR4lPj3TBvnTryCRRpqRxC/omnTPES5MY3aYzvKo5Oj3zttnC92sbwltcA6wG+IX8m0ZS4GNu9qSSvadMrNmHy2xdRmGeW+C5KGzD8Qv4Jpy3yBshFRuy0E7iD+/dSmOaOrJS2pWs8EFhO/cql9HgPe0eUyVp2eDpxF/HurTXNgV0taUpW+RfxKpfZZBLy8y+Wruk0HPo03vprs3ASs3dWSllSVF+IDVSaaa4FNu13Aao3D8CqByc4Hu1zGkipyLvErk5rnEmBe10tXbfNSyt6e6Pdd7fMg8LQul7GkCryS+BVJzfNfwOyul67aakvgeuLff7XPJ7pdwJLi/Yz4lUit85/AzO4XrVpuQ7wp1kQzSjmJUlLLHEj8CqTWORGY0f2i1ZBYl7IXKPr9WPN8puulKymM3/7Hnx/iGc76o5nA94h/X9Y6S4AFXS9dSY3z2//4cwru9tdTTQeOJf79Wesc1f2ildQ0v/0/dc7HB/qos2nA8cS/T2ucx4Bnd79oJTXlVcSvMGqbayknfUlrMoOylyj6/Vrj+KAgqQUuIX5lUdPcCTynpyWqTGbhrYPHm1G8L4BUtT2IX1HUNKPAzj0tUWU0G7iM+PdvbfO3vSxUSYN1IvEriVpmJfCG3hanEtsYuI3493FNczeeRyNVaTN8/vnq413M1KvtgQeIfy/XNG/vaYlKGojPE79yqGV+CKzV2+KUANgHWEr8e7qWuQYY6WmJSuqr9YGHiV851DA3ARv0tjilJ/lL4t/XNc0BvS1OSf30IeJXCjXMMmC3HpelNJ5vEv/+rmVO7XFZSuqTacAtxK8UapiP9rgspU7WAS4n/j1ewywHNu1tcUrqh4OIXyHUMGfhcX8N1pbAI8S/12uYv+9xWUrqg5OIXxlEz33AM3tdkNIkHEH8+72GuQ0LtxRqIzxDeRXw570uSGkKfHBQmf17XZCSuvcR4lcC0XN6z0tRmpq5wK3Ev/ej57u9LkhJ3buO+JVA5DyCJyMpxkLK3SajPwORs5SyF1JSw7zvP7y356Uode9rxH8Goucve16KkqbsG8R/+CPncjwJSbHmAncQ/1mInJ/2vBQlTckcypPuoj/8UbMSeGnPS1Hq3SHEfx6iP4sehmspv0G108GUEpDVscDF0SEkymW4p0WHCDQCvD46hJRJ5mv/R4EFvS9CqW+2BB4j/rMRNZf2vgglTcZ6wBLiP/RR87HeF6HUd58l/rMRNSuBLXpfhJIm8ufEf+Cj5l5KAZJqsx5wJ/Gfkaj5m94XoZrmOQDtc2h0gECfpBwCkGozCnwiOkSgQ6IDaOpGogNoStYDFgGzooMEuBPYinL4Q6rRDOAGYPPoIAFWAptQ1k9qCfcAtMtryLnxBzgSN/6q2zLKXqqM1gL2iw4hDbMfEH+sL2Juo3y7kmo3HbiR+M9MxPxHH5afpHHMAn5P/Ic8Yt7fh+UnNeWtxH9mImYR7lWWBmJ/4j/gEXM/uW96pPaZAfyG+M9OxOzah+WnhtjW2uOA6ABBvgwsjg4hTcEyyvs2o1dGB5CGUcZH/z4KPKMfC09q2FzgYeI/Q03PRf1YeGqGewDaYTNgu+gQAY7Hy4rUTg8DX48OEWAXYJ3oEJocC0A7ZN2t9m/RAaQefJXyrTiTmXgeQGtYANoh4/H/q4DLokNIPbgROD86RIA9ogNociwA9ZsJLIwOESDrSVQaLl+LDhDAAiD1yZ7En9jT9DwEzO7HwpOCrU15iFX0Z6rJeRC/XLaCL1L9XhYdIMAJlJseSW33OPC96BAN2wDYPjqEJmYBqN+e0QECHBsdQOqjE6IDBPAwQAtYAOq2FrBbdIiG3Q5cGB1C6qPzgd9Fh2iYVwK0gAWgbjsCG0aHaNhxlEeLSsNiJXBidIiGPS86gCZmAahbxt3/x0UHkAbgu9EBGrYjbl+q5wtUt2wF4FrgmugQ0gBcDDwQHaJBs4Eto0NozSwAdctWAE6ODiANyArgzOgQDfMwQOUsAPV69thkckp0AGmATo8O0LDnRwfQmlkA6vXC6AANuxO4NDqENEBnkOsEV/cAVM4CUK+dogM07FTyPThFudwL/DI6RIMsAJWzANRr5+gADTs1OoDUgEz3uNgMmBYdQp1ZAOqVqQAsBc6LDiE14KLoAA2aASyIDqHOLAB1ehqwaXSIBv0MWBwdQmpApj0AAJtHB1BnFoA67QSMRIdo0NnRAaSG/Aa4IzpEgywAFbMA1CnbFQAWAGVyRXSABm0WHUCdWQDqlOkKgMWUQwBSFldHB2iQewAqZgGo0w7RARp0MbAsOoTUoEy3u94sOoA6swDUaavoAA3y27+yybQH4DnRAdSZBaA+zwDmRodokAVA2dwEPBYdoiFPjw6gziwA9dkmOkCDVgGXRIeQGrYCuD06REPWBdaJDqHxWQDqs3V0gAbdDNwXHUIKcGt0gAbNjw6g8VkA6pOpAPw8OoAUJFMBmBcdQOOzANQnUwG4KjqAFCRTAXAPQKUsAPXJVAAyPRlNWl2WcwDAPQDVsgDUJ9MlgJmuh5ZWd290gAa5B6BSFoC6bAjMjg7RkAfJdU90aXWZTn7dIDqAxmcBqEumR2f67V+Z3R8doEFrRwfQ+CwAddkkOkCDfhUdQAqUaQ+ABaBSFoC6PDM6QINuiQ4gBXoMWBIdoiEWgEpZAOqS6RCABUDZLY0O0JCZ0QE0PgtAXdwDIOXxeHSAhlgAKmUBqEumApDpRijSeLLsAfAQQKUsAHXJUgDuARZHh5CCZdkDYAGolAWgLhtHB2iI3/6lPCcBup2plC9MXbLcMvPO6ABSBbLsBRuNDqDxWQDqMZ3y7OwM7o4OIFUgSwF4JDqAxmcBqMdcYCQ6REPuiQ4gVSDL8wAy3fWwVSwA9ch0v+y7ogNIFbgxOkBDbogOoPFZAOoxNzpAgzwEIOXZMGb5e7aOBaAemQrAougAUgWuig7QgMeA66NDaHwWgHpkOgTwUHQAqQLXAb+LDjFgF1FKgCpkAahHpj0AXhYkFT+JDjBg50YHUGcWgHpkKgAPRweQKnFSdIABOzk6gDqzANRjVnSAhiwHHo0OIVXiVIb3MrkrgF9Gh1BnFoB6zIgO0JBRYFV0CKkSS4ETokMMyLejA2jNLAD1mB4doCHeFUx6ss9T9owNk/uBf48OoTWzANQjyzOzszwBTZqsW4DvRIfosy+Q51bHrWUBqEeWPQDD9k1H6oePMzzl+C7gX6NDaGIWgHpk2QOwLDqAVKGbgP8dHaJPPoyH+lrBAlAP9wBIuf0L7X8+wJnAcdEhNDkWgHq4B0DK7THgUGBJdJAuLQLeFh1Ck2cBqEeWPQAWAKmza4APRofowgrgcODO6CCaPAtAPbK8FiujA0iV+yrwuegQU/RB4KzoEJqaLBsdSWqTvwaOjg4xSUfiWf+tZAGQpPqsAt4BfCU6yBqsAv5pbNRCWY47S1LbrADeSzm57u+Bkdg4T7IMeA/e7a/V3AMgSXX7R+A1wAPRQcb8FliIG//WswBIUv1OAXYGzg7OcTywE/DT4BzqAwuAJLXD7cC+wGE0f7nd9WO/+83Agw3/bg2IBUCS2uU7wBbAuym74wfplrHf8zzi9z5IQ+tblLNqh31+0p/FJYlyB9E3AqdRTszrx2d0CXAC8Cr8kjjUvApAktprKWVjfQLwDGA/YB/g5ZS9BJO5cmAFcANw7ticBTw8iLCqiwVAkobDIuDYsQFYB9gG2ByYB8wBZgGPAouB+4Gbx2Zp02EVzwIgScNpCfCLsZGewuM7kiQlZAGQJCkhC4AkSQlZACRJSsgCIElSQhYASZISsgBIkpSQBUCSpIQsAJIkJWQBkCQpIQuAJEkJWQAkSUrIAiBJUkIWAEmSErIASJKUkAVAkqSELACSJCVkAZAkKSELgCRJCVkAJElKyAIgSVJCFgBJkhKyAEiSlJAFQJKkhCwAkiQlZAGQJCkhC4AkSQlZACRJSsgCIElSQhYASZISsgBIkpSQBUCSpIQsAJIkJWQBkCQpIQuAJEkJWQAkSUrIAiBJUkIWAEmSErIASJKUkAVAkqSELACSJCVkAZAkKSELgCRJCVkAJElKyAIgSVJCFgBJkhKyAEiSlJAFQJKkhCwAkiQlZAGQJCkhC4AkSQlZACRJSsgCIElSQhYASZISsgBIkpSQBUCSpIQsAJIkJWQBkCQpIQuAJEkJWQAkSUrIAiBJUkIWAEmSErIASJKUkAVAkqSELACSJCVkAZAkKSELgCRJCVkAJElKyAIgSVJC06MDKJ2XALdEh5DUN6PA78fmAeA3wA3A9WM/74+LpjWxAKhps4AtokNIasyvgbOAn479vDM2jp4wEh1AACwAjgdeFh1EkgZoJXAOcDTwfcpeAwWxAMQZAQ4E3j32c1psHElq1CjwXeCzlMMFapgFoHlrAa8C/hHYJTiLJEVbCZxOWSdeEZwlFQtAs/YFvgjsEB1EkiqzCjgO+DBwd3CWFLwMsBnPoRzvOhM3/pI0nhHgcOA64L24fRo49wAM3tuALwHrB+eQpDa5GDiMclmhBsACMDgbAF8HXhcdRJJa6gHgLZRzBNRnnnk+GNsBZ+NlfZLUi3WANwMzgHODswwdC0D/HQD8F+XafklSb0aAvSg3EDuVctWA+sBDAP31auAEYO3oIJI0hE4D3gAsiQ4yDDzLsn/eDpyIG39JGpSDKHsBZkUHGQYeAuiP1wD/gctTkgZtC2BbyheuVcFZWs0NVu8WAidTTlKRJA3eDsB6wI+jg7SZBaA321DO9p8dHUSSknkpsAi4LDpIW3kSYPdmA5cAO0YHkaSkHgd2A66KDtJGngTYva/gxl+SIq1NeX7AutFB2shDAN05FPhEdAhJEk8H5lMuEdQUeAhg6uYDvwQ2ig4iSQLK1QC7Uw7LapI8BDB1X8CNvyTVZAQ4CrdpU+IhgKl5MeVN5p4TSarLAuC3wJXRQdrCDdnUnI8P+JGkWt0FbE65OkATcHfJ5B2AG39JqtkmwBHRIdrCPQCTdy6wd3QISdIa3UK5VfCK6CC1cw/A5OyKG39JaoMtgUOiQ7SBBWBy/kd0AEnSpL0jOkAbeAhgYrOBu4E50UEkSZOyHHgWcE90kJq5B2Bih+LGX5LaZDpl3a01sABMzDeRJLXPYdEBauchgDVbG7gP9wBIUtssB+YBj0QHqZV7ANZsb9z4S1IbTac8H0AdWADWbJ/oAJKkru0dHaBmFoA12yU6gCSpa3tFB6iZ5wB0NkI5/r9hdBBJUldGgfWjQ9TKPQCdPQc3/pLUZusBG0eHqJUFoLPNowNIknq2VXSAWlkAOts0OoAkqWfbRAeolQWgMwuAJLXfM6ID1MoC0NkG0QEkST3zXi4dWAA6Wzc6gCSpZ+tFB6iVBaCzdaIDSJJ65h6ADiwAnc2MDiBJ6plf5jqwAEiSlJAFQJKkhCwAkiQlZAGQJCkhC4AkSQlZACRJSsgCIElSQhYASZISsgBIkpSQBUCSpIQsAJIkJWQBkCQpIQuAJEkJWQAkSUrIAiBJUkIWAEmSErIASJKUkAVAkqSELACSJCVkAZAkKSELgCRJCVkAJElKyAIgSVJCFgBJkhKyAEiSlJAFQJKkhCwAkiQlZAGQJCkhC4AkSQlZACRJSsgCIElSQhYASZISsgBIkpSQBUCSpIQsAJIkJWQBkCQpIQuAJEkJWQAkSUrIAiBJUkIWAEmSErIASJKUkAVAkqSELACSJCVkAZAkKSELgCRJCVkAJElKyAIgSVJCFgBJkhKyAEiSlJAFQJKkhCwAkiQlZAGQJCkhC4AkSQlZACRJSsgCIElSQhYASZISsgBIkpSQBUCSpIQsAJIkJWQBkCQpoenRASSFWwE8AowCy4HZYzMnMpSkwbIASLncDJwLXAbcCFwP3N3h350JbAlsB2wP7AXsSSkHklrOAiANv8uBo4GTgdun8OeWAteNzUnAp4AZwO7AYcAbgQ36mlRSYzwHQBpOS4GvAzsCLwKOYmob/06WAecB7wE2AQ4Hru7Df1dSwywA0nBZDnyZsuv+L4BfDfB3PQYcB7wA+DMsAlKrWACk4XEZ8FLgfwJ3NPh7VwGnArsAH6CcUCipchYAqf2WUja8L6aUgCjLgS8BOwDnB+aQNAkWAKndfg3sQdnwrgrO8oQ7gFcAnwRWBmeR1IEFQGqvy4DdiP3W38ly4GPAoZRzBSRVxgIgtdOPgYXAvdFBJnAScDDlJkOSKmIBkNrnJ8CrgcXBOSbrLEoJcE+AVBELgNQuVwOH0L6N6XmUGwctjw4iqbAASO1xN7A/8FB0kC6dAvyv6BCSCguA1A4rgSPofN/+tvgc8IPoEJIsAFJbfBo4MzpEH6wC/htwZ3QQKTsLgFS/m4F/jg7RR/cDH44OIWVnAZDq937ad9LfRI4Hzo4OIWVmAZDq9iPg9OgQA/Ih6rl7oZSOBUCq2yejAwzQ1ZSHCEkKYAGQ6nUhcEF0iAEb5oIjVc0CINXr36IDNOBS4PLoEFJGFgCpTo8AJ0eHaMgx0QGkjCwAUp2+DzwaHaIhx+MtgqXGWQCkOp0RHaBBi4ArokNI2VgApPqsojw8J5NzogNI2VgApPpcC9wTHaJh50YHkLKxAEj1uTo6QIBrogNI2VgApPrcEB0gwF3Aw9EhpEwsAFJ9bowOECTr31sKYQGQ6rMoOkCQ+6IDSJlYAKT6LI4OEOSR6ABSJhYAqT6j0QGCZP17SyEsAFJ9RqIDBMn695ZCWACk+syJDhBkvegAUiYWAKk+WTeEWf/eUggLgFSfZ0QHCJL17y2FsABI9dkmOkCQraMDSJlYAKT6bBsdIMACYP3oEFImFgCpPjtFBwjw/OgAUjYWAKk+2wEbR4do2MLoAFI2FgCpPiPk2yDuEx1AysYCINXpwOgADdoEeEF0CCkbC4BUp0PIc0Ogw4Fp0SGkbCwAUp1mA6+NDtGQt0QHkDKyAEj1el90gAbsgVcASCEsAFK9XsLwnxz3d9EBpKwsAFLdPhYdYIBeBLwyOoSUlQVAqttC4NXRIQZgBPhsdAgpMwuAVL+jKCcFDpMjgL2jQ0iZWQCk+m0KfDw6RB9tBHwmOoSUnQVAaocPMhyHAtYCjsFH/0rhLABSO4wA36DsDWizvwf2iw4hyQIgtck84Axgw+ggXToM+IfoEJIKC4DULs8FTqd9JwW+AvgmrnOkavhhlNrnJcBZlD0CbXAwcAqwdnQQSX9kAZDaaTfgPOBZ0UEmcARwIrBudBBJT2YBkNprB+AyYN/oIOOYDnwa+BYwIzaKpPFYAKR224hyYuDfUc8jdbcELgI+Srl6QVKFLABS+00HPgFcDuwemGMG8H7gKmDXwBySJsECIA2PnYALKLvdt27w904D3gz8CvgiMKfB3y2pSxYAabisBbwVuA44lsF+E58DvHO139Vk6ZDUIwuANJye+FZ+KXAt8LfA9n34784GDqTczvdu4Gu44ZdaaXp0AEkDtz3wqbG5CziHcvXA9cCNwG+BZeP8ubnAVsC2lBsQ7UW5B8HMwUeWNGgWACmXTYDDx2Z1jwOLgUcpu/af1nAuSQ2zAEiCcpe+tWnP3QUl9chzACRJSsgCIElSQhYASZISsgBIkpSQBUCSpIQsAJIkJWQBkCQpIQuAJEkJWQAkSUrIAiBJUkIWAEmSErIASJKUkAVAkqSELACSJCVkAZAkKSELgCRJCVkAJElKyAIgSVJCFgBJkhKyAEiSlJAFQJKkhCwAkiQlZAGQJCkhC4AkSQlZACRJSsgCIElSQhYASZISsgBIkpSQBUCSpIQsAJIkJWQBkCQpIQuAJEkJWQAkSUrIAiBJUkIWAEmSErIASJKUkAVAkqSELACSJCVkAZAkKSELgCRJCVkAJElKyAIgSVJCFgBJkhKyAEiSlJAFQJKkhCwAkiQlZAGQJCkhC0BnS6MDSJJ69nh0gFpZADp7JDqAJKlno9EBamUB6Mw3jSS1n+vyDiwAnfmmkaT2WxwdoFYWgM7ujQ4gSerZ/dEBamUB6OyG6ACSpJ7dFB2gVhaAzq6LDiBJ6tmN0QFqNRIdoHKLgKdHh5AkdeVRYA6wKjpIjdwDsGbXRAeQJHXtOtz4d2QBWLOfRAeQJHXtgugANbMArNlZ0QEkSV07LzpAzTwHYM2mAfcBG0QHkSRNlFOHkgAAArxJREFUySrKOVxeBtiBewDWbAXuBZCkNroSN/5rZAGY2DHRASRJU3ZCdIDaeQhgYtOB24FNooNIkiZlFbAFcFtwjqq5B2Biy4Fjo0NIkibtfNz4T8gCMDn/j3I+gCSpft+ODtAG06IDtMQDwLbA86KDSJLW6HfAO/FL24TcAzB5R+IbSpJq93lgaXSINnAPwOQ9AGwP7BgdRJI0rgeAI7AATIp7AKbmb4DfR4eQJI3rU8BodIi2cA/A1DxMuSpgv+ggkqQnuQl4Ox6qnTTvAzB104FLgZ2jg0iS/uBA4IzoEG3iIYCpWw68G1gWHUSSBMD3cOM/ZR4C6M6dlMMBr4wOIknJ3QEcBCyJDtI2FoDu/QzYCnh+dBBJSmol8Frg2uggbeQhgN68D7guOoQkJfVx4JzoEG3lSYC9WwBcCGwWnEOSMvkOcDhlL4C6YAHoj62AC4CNo4NIUgLnAfsDj0cHaTMLQP+8ADgb2DA6iCQNsV8AewMPBedoPc8B6J+rgJcAN0cHkaQh9XNgX9z494UFoL9uBl4GXBEdRJKGzLnAK4D7ooMMCwtA/91N2T11cnAOSRoW3wYOwPv895UFYDBGgUOAtwKPBmeRpLZ6HPgA8DZ8wl/feRLg4O0EHAc8NzqIJLXIzcAbgCujgwwr9wAM3i8oVwh8AHdfSdJElgFHUR645sZ/gNwD0KxnAZ+jtFqXvSQ92XnAe/EOq41wD0Cz7gDeRNkjcAzlyYKSlN3FwJ8BC3Hj3xi/hcbaGvgIpRSsF5xFkpq0knIf/09TbqKmhlkA6jAL2A94C/AaYEZsHEkamBso9/E/Gvh1cJbULAD1mQ/sQ9kVthDYNjaOJPVkFDif8i3/HMqJ0aqABaB+mwA7AtsA21EKwXxgLrA+MBtYJyydpOweAhaPzcPArZRv+deP/bwGz3eq0v8HtaMvB2SNjB4AAAAASUVORK5CYII=" vertex="1" parent="1">
          <mxGeometry x="311" y="298" width="22" height="22" as="geometry" />
        </mxCell>
        <mxCell id="1fxW01cwJuNlYjaTtQPK-25" value="Allowed for debugging" style="text;html=1;align=left;verticalAlign=middle;whiteSpace=wrap;rounded=0;" vertex="1" parent="1">
          <mxGeometry x="343" y="294" width="137" height="30" as="geometry" />
        </mxCell>
        <mxCell id="1fxW01cwJuNlYjaTtQPK-26" value="Disallowed for debugging" style="text;html=1;align=left;verticalAlign=middle;whiteSpace=wrap;rounded=0;" vertex="1" parent="1">
          <mxGeometry x="343" y="254.5" width="137" height="30" as="geometry" />
        </mxCell>
      </root>
    </mxGraphModel>
  </diagram>
</mxfile>
